/* XPM */
static char *_047b9b0375b4196a014dea973f8863cksT4H4ZIneNmIPur[] = {
/* columns rows colors chars-per-pixel */
"64 64 199 2 ",
"   c #3C122C",
".  c #3F1631",
"X  c #3F1933",
"o  c #40172F",
"O  c #401B2F",
"+  c #401732",
"@  c #431B33",
"#  c #431E3B",
"$  c #4A2735",
"%  c #4B2436",
"&  c #45223C",
"*  c #522A36",
"=  c #522B3A",
"-  c #4F3138",
";  c #54323C",
":  c #59343D",
">  c #61353B",
",  c #441F41",
"<  c #472447",
"1  c #4C2C45",
"2  c #4B2C4C",
"3  c #4D304F",
"4  c #583746",
"5  c #4A2952",
"6  c #4E3252",
"7  c #533957",
"8  c #613D44",
"9  c #533865",
"0  c #563D73",
"q  c #5F4744",
"w  c #5E485E",
"e  c #654847",
"r  c #69474A",
"t  c #6D4A4C",
"y  c #704E4E",
"u  c #6C534B",
"i  c #74554A",
"p  c #765852",
"a  c #7D6557",
"s  c #564264",
"d  c #5A466A",
"f  c #5B4775",
"g  c #5F5177",
"h  c #614D63",
"j  c #645267",
"k  c #6A5A6F",
"l  c #6C5E71",
"z  c #62567C",
"x  c #6E6276",
"c  c #746A7E",
"v  c #83574D",
"b  c #896747",
"n  c #96764C",
"m  c #816459",
"M  c #856C5C",
"N  c #886C5C",
"B  c #926E54",
"V  c #A87756",
"C  c #8A6F61",
"Z  c #897362",
"A  c #8B7463",
"S  c #947966",
"D  c #947E6B",
"F  c #AD8E53",
"G  c #B88D5B",
"H  c #94806E",
"J  c #9D856C",
"K  c #9C8773",
"L  c #A78B68",
"P  c #A3896E",
"I  c #A38B73",
"U  c #A88D72",
"Y  c #AC9575",
"T  c #AA947C",
"R  c #B39C7A",
"E  c #BAA17E",
"W  c #C3A85C",
"Q  c #CF9B65",
"!  c #DDA86A",
"~  c #CDB360",
"^  c #DFC666",
"/  c #EED676",
"(  c #F6E06E",
")  c #5F4C8B",
"_  c #665E86",
"`  c #625395",
"'  c #68628A",
"]  c #787083",
"[  c #6D6A93",
"{  c #6E6C96",
"}  c #6F709A",
"|  c #71729D",
" . c #6A5DA8",
".. c #767BA8",
"X. c #787EAC",
"o. c #6E65B2",
"O. c #736EC1",
"+. c #7570C6",
"@. c #7B7AD7",
"#. c #7A82AF",
"$. c #7C84B3",
"%. c #7F8AB9",
"&. c #7F84D8",
"*. c #7F82E3",
"=. c #838394",
"-. c #878A9A",
";. c #B49D82",
":. c #BCA482",
">. c #8F95A5",
",. c #808CBC",
"<. c #9AA7B6",
"1. c #C3AC87",
"2. c #C7B688",
"3. c #CDB18E",
"4. c #CDBC8C",
"5. c #D3B48E",
"6. c #CDB392",
"7. c #D4B691",
"8. c #D5B994",
"9. c #DBBD95",
"0. c #D5BD9A",
"q. c #DCBF99",
"w. c #E0BF97",
"e. c #E1BF99",
"r. c #D1C18E",
"t. c #D4C590",
"y. c #DEC097",
"u. c #D7C892",
"i. c #DCCE95",
"p. c #DEC29C",
"a. c #DFD297",
"s. c #E1C196",
"d. c #E3C49B",
"f. c #E6C89E",
"g. c #E3D599",
"h. c #E6D99C",
"j. c #EADE9F",
"k. c #EBE09F",
"l. c #DEC5A2",
"z. c #DBC9AD",
"x. c #DBCCB6",
"c. c #DDD0B8",
"v. c #E2C6A1",
"b. c #E5CAA3",
"n. c #E9CDA5",
"m. c #E5CDAA",
"M. c #EACEA9",
"N. c #ECD1A6",
"B. c #E6D1AD",
"V. c #EDD3AC",
"C. c #EFD8AE",
"Z. c #F0D7AE",
"A. c #F0D8AF",
"S. c #E3CFB0",
"D. c #EDD6B2",
"F. c #EED8B3",
"G. c #E4D4B8",
"H. c #F1DAB1",
"J. c #EEE3A1",
"K. c #F5EBA6",
"L. c #F8EEA8",
"P. c #FAF1A9",
"I. c #828FC0",
"U. c #8493C4",
"Y. c #879ACC",
"T. c #8288DF",
"R. c #8A9ED2",
"E. c #8CA3D6",
"W. c #90A9DE",
"Q. c #A4B7C5",
"!. c #B7BDD5",
"~. c #8184E6",
"^. c #828AE4",
"/. c #8286EA",
"(. c #868FEA",
"). c #8894EB",
"_. c #8FA2EB",
"`. c #92ADE3",
"'. c #92AAEB",
"]. c #98B3E7",
"[. c #96B4EB",
"{. c #A7B9E3",
"}. c #ADC5D2",
"|. c #B1CBD8",
" X c #B8D6E1",
".X c #BADAE5",
"XX c #BDDFE9",
"oX c #BDE0EA",
"OX c #CACACC",
"+X c #D6CBC3",
"@X c #D8D7C9",
"#X c #CCDEDD",
"$X c #D4DCD4",
"%X c #D8DDD2",
"&X c #E2DAC4",
"*X c #C9DFE1",
"=X c #CAE1E3",
"-X c #C7E2E8",
";X c #C1E5EF",
/* pixels */
"d.y.V.C.C.Z.Z.V.C.M.M.v.v.b.b.f.v.f.f.v.b.v.v.p.q.e.d.d.M.b.n.d.f.d.d.d.N.Z.Z.Z.H.V.V.V.M.b.d.b.f.b.f.f.b.b.f.b.f.p.q.e.d.d.V.b.",
"l.b.N.V.C.C.H.N.N.Z.N.b.8.e.p.q.p.5.d.9.9.q.q.7.p.v.l.v.m.m.b.v.m.v.OXm.M.Z.Z.Z.H.N.V.V.N.n.8.w.p.p.d.7.p.y.9.9.q.8.0.v.l.v.m.b.",
"D.m.N.Z.A.Z.A.n.Z.V.N.d.d.d.f.f.e.p.f.9.e.d.e.v.v.D.D.D.V.D.D.D.D.D.;X$Xn.Z.Z.C.A.N.C.N.Z.d.d.d.f.f.d.q.f.y.d.p.p.v.b.D.D.V.D.B.",
"D.D.n.M.V.Z.A.H.C.Z.V.q.d.d.f.f.d.q.s.d.f.d.p.n.m.m.m.M.D.F.F.F.D.&X;X-Xb.M.N.Z.Z.D.V.C.N.q.d.d.f.b.e.q.d.y.f.d.d.M.b.m.v.D.D.D.",
"D.D.M.N.N.Z.C.A.V.Z.d.s.s.f.f.n.f.d.s.d.v.9.V.N.M.l.l.M.D.F.F.F.F.=X;X;X@Xn.N.Z.A.A.A.C.d.d.d.f.f.n.f.d.s.d.d.y.M.V.M.v.v.D.D.D.",
"C.B.B.b.M.C.Z.Z.A.N.9.s.d.f.N.f.f.s.d.d.d.b.V.N.M.b.B.m.F.M.G.$X;X;X;X;X;X*X&XZ.A.A.Z.N.8.s.d.f.N.b.d.d.d.d.d.b.Z.N.Z.M.S.v.D.D.",
"D.D.D.B.M.M.Z.Z.Z.y.s.w.d.f.Z.d.d.d.d.f.y.H.H.Z.Z.M.v.d.F.F.$X;X;X;X;X;X;X;X-XG.A.A.V.y.d.w.d.f.N.d.f.s.d.d.d.H.H.Z.M.M.l.v.D.D.",
"V.M.C.B.b.Z.Z.Z.n.9.s.d.f.N.d.f.d.d.d.9.n.H.H.Z.n.v.n.v.D.D.F.&X=X;X;X;X;X%Xz.N.N.A.N.w.w.d.d.N.d.f.d.d.d.s.b.A.H.Z.n.e.n.v.D.D.",
"b.b.n.b.v.M.M.Z.y.y.d.f.N.N.f.d.d.d.d.d.C.D.H.n.n.f.M.b.m.n.n.b.n.$X;X;Xm.b.b.b.N.D.q.s.e.d.N.n.d.d.d.d.f.d.Z.V.H.n.M.v.M.b.b.n.",
"v.b.v.b.b.v.N.l.y.y.l.-XC.v.b.d.f.f.w.n.Z.C.H.C.M.Z.N.n.p.b.b.b.b.G.;X#Xf.b.b.p.V.v.9.w.e.v.D.f.n.d.f.f.q.M.Z.Z.H.Z.N.Z.Z.n.e.b.",
"b.f.d.v.f.d.m.9.y.p.@XoXS.n.d.f.v.d.e.V.C.Z.H.H.N.Z.Z.n.b.v.f.f.v.v.-X@Xb.b.b.v.l.9.d.e.l.OX'.+Xd.f.v.d.d.N.V.C.Z.H.Z.N.Z.M.v.v.",
"7.e.9.9.q.q.6.e.v.x.-XoX*Xc.v.l.v.v.b.V.N.Z.Z.H.M.C.N.M.n.8.y.y.q.0.z.l.9.8.9.9.7.p.l.v.v.x.!.x.v.v.v.v.m.N.C.C.Z.H.M.Z.Z.N.n.8.",
"e.f.s.d.d.q.v.m.=X;X;X;XoX;X%XC.D.V.m.N.V.Z.Z.H.n.V.V.N.d.d.d.f.f.s.d.f.w.d.d.q.v.v.M.D.M.D.D.M.D.D.D.M.m.M.V.C.C.Z.V.N.M.Z.d.d.",
"e.d.e.d.d.d.M.v.G.$X;X;X-X%XF.F.F.D.D.b.N.D.+X+XH.Z.H.N.s.d.d.f.b.p.y.s.q.d.d.d.M.b.B.m.D.D.F.D.D.D.F.D.D.b.N.V.Z.C.H.C.Z.N.8.d.",
"d.w.d.f.q.V.N.n.v.p.$X;X&XF.F.F.D.F.D.M.M.{.[.[.OXZ.D.p.d.s.f.f.b.f.d.s.d.f.9.N.M.M.v.p.M.D.D.F.F.D.F.F.H.D.M.M.C.C.A.C.C.d.d.d.",
"d.d.d.d.b.N.Z.M.m.B.c.-XD.B.F.N.V.B.C.M.OX[.[.[.[.D.N.9.s.d.f.N.b.f.s.d.d.d.v.N.N.V.n.S.m.D.M.B.F.B.M.D.B.m.m.G.D.C.A.Z.n.9.s.d.",
"s.d.d.y.F.H.C.N.M.v.e.G.H.F.D.D.D.D.D.C.x.[.[.[.].A.p.s.9.d.d.V.d.f.s.d.d.e.H.H.Z.N.N.v.q.D.D.D.F.D.D.D.C.C.B.=X%XC.A.V.p.s.s.d.",
"d.d.s.b.A.H.C.n.v.n.m.D.D.D.D.D.D.C.V.V.S.!.[.].+Xn.s.s.d.d.n.f.f.d.d.d.e.b.H.H.D.n.b.n.v.D.D.D.D.D.D.D.B.D.G.;X=XN.A.B.9.s.d.d.",
"d.d.s.Z.H.H.n.b.v.M.v.m.M.n.M.n.b.n.b.n.n.b.M.V.Z.y.w.s.d.h.N.d.f.d.d.d.e.Z.Z.H.n.n.e.M.b.m.n.n.b.M.b.n.m.$X-X;X;X-X%Xp.s.s.d.n.",
"f.d.n.C.Z.H.N.N.Z.N.M.d.v.n.v.v.v.b.v.b.v.b.v.N.b.9.w.e.f.V.f.n.d.d.d.d.M.Z.Z.H.Z.N.V.V.n.l.b.b.n.b.v.b.c.-XoX;X;X;X#Xd.s.s.d.Z.",
"d.d.N.Z.Z.H.H.N.V.N.N.v.b.f.f.f.b.b.b.b.b.f.v.b.9.q.e.d.V.b.n.d.d.v.d.q.N.Z.D.Z.H.V.Z.N.N.b.v.b.v.v.b.b.f.b.@X;X-Xx.9.d.s.d.N.b.",
"p.b.N.Z.Z.D.H.Z.A.N.N.n.7.8.y.y.9.5.q.8.7.9.9.3.l.v.l.v.B.b.l.p.v.d.d.v.N.Z.Z.Z.H.V.Z.V.N.n.7.9.9.9.q.5.q.8.7.*XOX3.l.l.p.b.m.l.",
"D.m.M.Z.C.Z.H.b.C.V.N.p.d.d.f.f.d.w.b.9.e.d.e.e.v.M.M.B.N.B.D.D.D.D.B.m.N.V.Z.Z.Z.n.V.V.N.f.s.d.b.f.d.9.b.d.e.@Xz.d.v.M.B.B.V.V.",
"D.D.M.N.V.Z.Z.H.V.C.V.y.d.d.f.f.q.e.d.e.f.d.q.M.v.V.B.D.F.F.D.D.D.D.D.D.b.M.Z.Z.Z.Z.Z.Z.V.s.d.d.f.f.p.9.d.e.d.d.p.N.b.B.m.D.F.F.",
"D.D.D.M.N.Z.H.H.V.C.l.d.s.f.f.f.f.d.s.d.d.y.N.N.n.l.v.B.D.D.F.D.D.F.D.F.B.n.N.C.F.C.C.F.l.d.d.f.f.f.d.d.y.d.f.y.N.B.N.v.e.D.D.D.",
"D.M.M.m.N.Z.Z.A.A.N.9.s.f.f.N.n.f.s.d.d.d.p.f.0.6.;.;.T T K K K H K I T T ;.:.6.u.m.C.N.8.s.d.d.N.n.f.d.d.d.d.p.C.N.M.n.S.M.D.M.",
"D.D.C.m.M.N.Z.Z.V.y.s.9.d.d.V.d.8.R U A e O                           o             O e C L 1.5.N.d.f.d.d.d.y.F.H.V.N.M.z.p.D.D.",
"B.D.V.D.m.N.Z.Z.N.w.s.d.8.:.A ; o                       % % ; = 4 = % @ .                       - S R 5.d.d.b.F.H.Z.M.n.b.v.D.D.",
"n.b.b.b.b.n.M.Z.y.5.P u         o   o : p D Y 1.4.h.L.P.P.P.P.P.P.P.P.P.L.L.h.r.:.Y J a :               u U v.F.H.M.n.e.M.v.M.M.",
"b.b.b.b.b.v.V.1.a           % a R 4.K.P.P.P.P.P.P.P.P.P.P.P.P.P.P.P.P.P.L.P.P.L.P.P.P.P.P.K.r.R m *           A 0.N.C.N.N.n.l.b.",
"f.v.b.b.f.5.M         e J u.P.P.P.P.P.P.P.P.P.P.P.L.P.P.P.P.P.P.P.P.P.P.P.P.P.P.P.P.P.P.P.P.P.P.P.P.u.J r         A 0.V.N.M.v.v.",
"8.d.d.8.P O     % S i.P.P.P.P.P.P.P.P.P.P.P.P.P.P.L.h.i.t.t.2.2.2.2.t.t.i.h.L.P.P.P.P.P.P.P.P.P.P.P.P.P.P.i.S @     @ ;.N.M.b.9.",
"w.b.9.m     O S J.P.P.P.P.P.P.P.P.P.k.2.Y Z i 4 %                             % 4 i C Y 4.j.P.P.P.P.P.P.P.P.P.J.S @     Z M.v.w.",
"w.s.a     8 g.P.P.P.P.P.P.P.g.Y a $                                           X             = m R g.P.P.P.P.P.P.P.i.8     M 9.d.",
"f.P     i K.P.P.P.P.P.g.J 4               X 6 s g ' } #.#.#.%.&.I.%.$.X.X.} _ g s 3 +               4 J h.P.P.P.P.P.K.p     P d.",
"5..   e K.L.P.P.P.r.y o         # s [ #.E.].[.[.].].[.[.].].[.[.[.[.[.[.[.[.[.[.[.[.[.E.$.' d @           y t.P.P.P.L.K.e   O 5.",
"L     u.P.P.P.j.p         3 [ U.[.[.[.[.[.[.[.[.].[.[.[.[.[.[.[.[.[.[.[.[.[.[.[.[.[.[.[.[.[.[.[.U.' 6         p k.L.P.P.u.    P ",
"i   r P.P.P.i.=     @ z Y.[.[.[.[.[.[.[.[.[.[.`.Y.%.#...| } [ ' _ [ } } ..X.,.R.`.[.[.[.[.[.[.[.[.[.[.Y.z @     = g.P.P.P.r   i ",
"*   A P.P.P.r     d E.[.[.[.[.[.[.E.#.' s 2 #                 @                   & 5 s ' $.E.[.[.[.[.[.[.E.s     r P.P.P.A   ; ",
"%   S P.P.P.8     z W.[.[.R.| s X                                                             & d } E.`.[.`.z     8 P.P.P.A   % ",
"u   u P.P.P.r.&     # g 2               1 h c =.>.Q.Q.|..X.XoX;X;XXX X X|.Q.<.>.-.] d 1               2 z &     % r.P.P.P.t   i ",
"H     a.P.P.P.a.e             & l -.Q.oX;X;X;X;X;X;XoXoX;XoX;XoX;X;X;X;XoXoX;X;X;X;X;X;XXXQ.-.l &             r g.P.P.P.i.X   J ",
"p.X   t P.P.P.P.P.:.8           1 k -.Q.oX;X;X;X;X;X;X;X;X;Xw -.;X;X;X;XQ.}.;X;X;X;X;XXXQ.=.k 1           4 :.P.P.P.P.K.t   X p.",
"F.Z     p K.P.P.P.P.P.4.M =             X j }.;X;X;X;X;XoX;XX ] ;X;X;X;X4 k ;X;X;X}.j X             * N r.P.P.P.P.P.K.p     A F.",
"V.H       r g.P.P.P.P.P.P.L.4.J t @         & }.;X;X;X;X;X;Xw >.;X X-XoX7 k ;X;X}.O         @ t J 4.L.P.P.P.P.P.P.a.r       H C.",
"V.H         @ P K.P.P.P.P.P.P.P.P.L.i.E m     h ;X;X;X;X;X;XoX;X;X7 c ;X<.Q.;X;Xh   O m E i.L.P.P.P.P.P.P.P.P.K.I @         D B.",
"F.H   < f       = J J.P.P.P.P.P.P.P.P.P.P.M     oXoX;X;X;X;X;X;X;X6 l ;XoX;X;X.X    M P.P.P.P.P.P.P.P.P.P.J.J %       0 <   D F.",
"C.D   2 [.$.1         i R k.P.P.P.P.P.P.P.Y     |.;X;X;X;X;X;X;X;X] >.;X;X;X;X|.    Y P.P.P.P.P.P.P.J.R t         < o.*.5   H D.",
"m.D   2 [.[.`.X.3           q S :.j.L.P.P.r   X oX;X;X;X;X;X;X;X;X;X;X;X;X;X;XoX@   t L.P.P.h.1.S 4           5  .@.O./.5 o S M.",
"b.A   5 [.[.W.[.[.%.g &             % t :     x oX;X;X;X;XoX;X;X;X;X;X;X;X;X;X;Xx     : t %             # z o.@.7   O & @ o C v.",
"b.A   5 U.3   & ' `.[.[.%._ 6                 c ;X;X;X;X;X;X;X;X;X;X;X;X;X;X;X;X]                 6 ' ,.[.'.*.0 . B V =     C m.",
"8.A   & & O F b   ' [.[.[.[.[.W.%.{ f 7 7 <   w oX;X;X;X;X;X;X;X;X;XoX;X;X;X;XoXw   & 7 6 g { ,.`.].].].[._.~.X v ! ! V   o D 9.",
"9.U       ~ ( ( i < [.[.[.[.[.`.$.$.`.[.[.d   # oXoX;X;X;X;X;X;X;X;X;X;X;X;X;X.X@   d [.[.[.[.[.[.[.[.[.[.)./.@ v ! ! G     I 9.",
"p.R       ^ ( ( b @ [.[.[.[.%.#     = U.[.X.    x oX;X;X;X;X;X;X;X;X;X;X;XXXXXl     $.[.[.[.[.[.[.[.[.[.'././.0 o v V *     T e.",
"d.5.      e ~ G O h [.[.[.`.& : ~ W * 2 [.[.7     3 c =.=.=.=.=.=.#.-.=.=.c 1     7 [.[.[.[.`.' 2 ; ' '.)././.@.9 o       o 5.d.",
"d.s.i           3 W.[.[.[.,.  W ( ( F   E.[.E.6                       .         5 W.[.[.[.[.z   i i   d /./././.*.@.O.#   i s.e.",
"d.d.:.    7  .&.].[.[.[.[.Y.  F ( ( n o W.[.[.`.{ 6 . .       .           . 6 { `.[.[.[.[.W.  n / / m   @./././.~./.0 +   :.w.e.",
"d.d.d.a     ) *.).'.[.[.[.[.7 @ n b @ d [.[.[.[.[.[.[.[.[.[.[.[.].].[.[.[.[.[.[.[.[.[.[.[.Y.  L 6.! V   O././././.`   o p e.d.d.",
"d.d.y.l.q     f ~././.(.(.(.&.9 . . d ^.(.(.(.(.(.(.(.(./.(.).(.^.).).(.(.(.).(.(.(.(.).(.^.@ > Q Q > @ *././.*.f o   8 5.s.s.f.",
"d.d.l.F.l.q     # ) @./././././.~././././././././.*./././././.*.^./.*./././././././././././. ..        ./.@.` , o o 8 1.s.s.s.Z.",
"d.y.V.C.C.n.a         < 5 5 5 5 5 5 5 5 5 5 5 5 5 5 5 5 5 5 5 5 5 5 5 5 5 5 5 5 5 5 5 5 5 5 5 @     # 5 ,         a 8.w.s.e.n.N.",
"y.d.N.V.Z.D.F.3.i                             . .         .                                                   t ;.0.7.7.w.9.b.d.",
"B.b.N.C.C.C.C.b.B.p.:.J N N M M M a Z N M M M a C C Z Z A Z A Z A Z A N A A A A A Z A A A C M M N N C N P Y 3.d.f.q.m.M.m.M.D.B.",
"Z.B.M.N.C.C.C.C.C.A.N.y.f.d.f.f.q.d.d.q.d.d.9.m.l.D.D.D.D.F.D.D.D.D.D.D.M.N.C.F.A.C.C.C.N.p.d.d.f.f.q.d.f.e.d.d.e.b.v.D.D.D.D.D."
};
