/* XPM */
static char *_e9899af65b541ee90e82ccedb2c1373mzphiCGKAKXaGFIT[] = {
/* columns rows colors chars-per-pixel */
"64 64 169 2 ",
"   c #000000",
".  c #090703",
"X  c #0C0A04",
"o  c #0C0C0C",
"O  c #110E06",
"+  c #110E0A",
"@  c #181206",
"#  c #15120B",
"$  c #1D170B",
"%  c #1A180F",
"&  c #151515",
"*  c #1B1810",
"=  c #1D1D1D",
"-  c #251D0B",
";  c #221D14",
":  c #2C210C",
">  c #35280E",
",  c #3A2C0F",
"<  c #262216",
"1  c #2C251B",
"2  c #3D2E10",
"3  c #242424",
"4  c gray18",
"5  c #342B23",
"6  c #382F24",
"7  c #373025",
"8  c #3A3226",
"9  c #3B3228",
"0  c #353535",
"q  c #3D3D3D",
"w  c #453111",
"e  c #493713",
"r  c #4C3914",
"t  c #4B3F1F",
"y  c #41372A",
"u  c #453B2C",
"i  c #493E2E",
"p  c #473D30",
"a  c #564116",
"s  c #5A4317",
"d  c #7D571F",
"f  c #4B452D",
"g  c #564823",
"h  c #4D4234",
"j  c #514534",
"k  c #564F34",
"l  c #544B3C",
"z  c #5A4E3D",
"x  c #7C5E20",
"c  c #474747",
"v  c #4B4B4B",
"b  c #535353",
"n  c #5B5B5B",
"m  c #625542",
"M  c #7A6751",
"N  c #7E6C55",
"B  c #656565",
"V  c #686868",
"C  c #825A20",
"Z  c #836322",
"A  c #8F6B25",
"S  c #936E26",
"D  c #9B7529",
"F  c #B37C2C",
"G  c #826F58",
"H  c #84735B",
"J  c #8A765D",
"K  c #897961",
"L  c #B5812D",
"P  c #BA822E",
"I  c #B4882F",
"U  c #B9892F",
"Y  c #BC8D31",
"T  c #CE9C36",
"R  c #D09033",
"E  c #D29E37",
"W  c #E49E38",
"Q  c #DDA639",
"!  c #E7AC3C",
"~  c #F1A73B",
"^  c #F4A93C",
"/  c #F5B33F",
"(  c #F4B83F",
")  c #958755",
"_  c #9F925F",
"`  c #A08742",
"'  c #A18842",
"]  c #9A8467",
"[  c #94836A",
"{  c #9C866A",
"}  c #9C886D",
"|  c #9F8C70",
" . c #A28C6E",
".. c #A29461",
"X. c #AA9C66",
"o. c #A28D72",
"O. c #A59275",
"+. c #A89578",
"@. c #A9977C",
"#. c #AA997B",
"$. c #B19B7D",
"%. c #C4A650",
"&. c #D3B45D",
"*. c #D8B658",
"=. c #F6B740",
"-. c #F6B940",
";. c #C5AF68",
":. c #CCBB7A",
">. c #E8C45F",
",. c #D3C27F",
"<. c #E9C560",
"1. c #F0CB62",
"2. c #F9D266",
"3. c #FAD46A",
"4. c #FADA79",
"5. c #B29F80",
"6. c #BCA381",
"7. c #BAA687",
"8. c #C7AA85",
"9. c #C5AD8A",
"0. c #CCB18E",
"q. c #D2B48D",
"w. c #CCB492",
"e. c #CDB995",
"r. c #D2B692",
"t. c #D5BA95",
"y. c #DCBD96",
"u. c #D5BD9A",
"i. c #DBBE99",
"p. c #E0BF97",
"a. c #E1BF99",
"s. c #D9C782",
"d. c #DDCB85",
"f. c #DFC096",
"g. c #DDC29C",
"h. c #E4D189",
"j. c #E9D68C",
"k. c #E1C196",
"l. c #E3C49B",
"z. c #E6C99E",
"x. c #F1DD90",
"c. c #FBE28B",
"v. c #FCE797",
"b. c #DFC5A2",
"n. c #E3C6A1",
"m. c #E5CAA3",
"M. c #E9CDA5",
"N. c #E5CDA9",
"B. c #EACFA9",
"V. c #ECD1A6",
"C. c #E7D1AA",
"Z. c #EBD1A9",
"A. c #EDD0A8",
"S. c #EDD2AA",
"D. c #EED4AB",
"F. c #EAD2AD",
"G. c #ECD3AD",
"H. c #EDD5AD",
"J. c #EFD6AD",
"K. c #EFD8AE",
"L. c #F0D7AE",
"P. c #FCD0AE",
"I. c #F0D8AF",
"U. c #EDD6B1",
"Y. c #EDD6B2",
"T. c #EFD8B2",
"R. c #EED9B4",
"E. c #F1D9B1",
"W. c #F1DAB1",
/* pixels */
"l.g.S.J.J.E.E.G.D.S.V.n.z.m.z.m.m.z.m.m.m.l.z.g.y.a.l.l.B.n.B.l.m.l.l.g.F.L.J.U.E.D.L.S.V.m.n.m.z.m.z.z.m.z.m.z.m.g.y.l.a.l.G.m.",
"b.m.S.D.K.L.I.S.D.S.S.M.t.y.y.i.g.r.g.y.y.y.y.r.g.n.b.n.N.N.m.n.n.n.| h                                                 h o.m.N.",
"G.N.S.S.L.D.I.M.U.D.S.g.k.l.z.z.l.f.m.f.a.l.a.m.N.F.U.F.U.Y.Y.Y.U.@.                                                        @.G.",
"U.U.M.B.D.I.I.E.J.L.S.y.l.l.z.m.f.f.k.f.m.l.i.B.n.N.N.U.Y.Y.Y.R.T.v   R -.-.-.-.-.-.-.-.-.-.-.-.-.-.-.-.-.-.-.-.-.-.-.-.Y   l U.",
"U.U.N.Z.Z.J.K.E.L.L.k.k.l.z.z.z.z.l.l.l.z.y.Z.S.B.n.b.F.F.T.T.T.R.    -.-.-.-.-.-.-.-.-.-.-.-.-.-.-.-.-.-.-.-.-.-.-.-.-.-.    U.",
"G.U.Z.N.S.J.L.K.I.V.y.k.l.z.V.V.z.k.l.l.k.m.D.D.B.N.F.N.U.F.F.T.F.    -.-.-.-.-.-.-.-.-.-.-.-.-.-.-.-.-.-.-.-.-.-.-.-.-.-.    U.",
"T.U.J.C.B.S.J.L.J.f.k.k.l.z.S.l.l.k.l.z.f.T.E.S.B.S.n.a.U.U.T.T.U.    -.-.-.-.-.-., : T -.-.-.-.-.-.-.-.I : , -.-.-.-.-.-.    T.",
"F.F.G.G.m.S.J.U.M.f.k.l.z.V.l.z.l.l.l.f.M.E.E.J.M.n.M.N.U.U.U.T.U.    -.-.-.-.-.E     . S -.-.-.-.-.Q s       E -.-.-.-.-.    U.",
"m.m.m.m.n.M.L.L.g.f.k.l.S.V.l.z.l.l.l.g.J.I.E.S.M.m.S.n.M.C.M.M.m.    -.-.-.-.-.S   #     > - . X - X   o <   S -.-.-.-.-.    M.",
"m.m.m.m.m.i.9.} M k 9 + % y z N  .6.y.V.L.J.T.J.S.D.Z.M.g.m.m.z.m.    -.-.-.-.-.a   ) _ X             f d.)   a -.-.-.-.-.    m.",
"z.m.l.0.H ;                         ; K u.J.E.E.Z.S.D.V.m.g.z.z.m.    -.-.-.-.( @   &.v.s.X.:.x.j.,.s.v.v.,.  @ -.-.-.-.-.    l.",
"r.a.]     . r Z I E ! -.( ! E I Z e .     +.J.E.S.D.D.Z.M.t.f.f.i.    / -.-.-.T   # 2.4.v.v.v.v.v.v.v.v.v.v.%   E -.-.-.-.    t.",
"a.+.  O Z ! ( / / ^ ^ ^ ^ ^ ^ ^ ^ / ! C #   5.K.V.G.D.S.g.l.l.z.z.    ^ -.-.-.S   g 2.2.c.v.v.v.v.v.v.v.v.v.k   A -.-.-.-.    l.",
"p.j   U ( ^ ^ ^ ^ ^ ^ ^ ^ ^ ^ ^ ^ ^ ^ ^ L   z J.T.J.K.Z.f.l.l.z.M.    ^ ( -.-.,   ' 2.2.3.c.v.v.v.v.v.v.v.v...  2 -.-.-.-.    l.",
"z.    U ^ ^ ^ ^ ^ ^ ^ ^ ^ ^ ^ ^ ^ ^ ^ ^ F     K.T.J.J.g.k.l.z.z.m.    ^ ^ -.-.X   <.2.2.2.3.c.v.v.v.v.v.v.v.j.  X -.-.-.-.    l.",
"k.    . d W ^ ^ ^ ^ ^ ^ ^ ^ ^ ^ ^ ^ W d .     I.K.K.Z.y.f.l.z.V.M.    ^ ^ =.-.O   >.2.2.2.2.3.c.v.v.v.v.v.v.j.  O -.-.-.-.    l.",
"k.        . w C F R W ~ ~ W R F C w .         L.L.L.p.k.y.l.l.S.z.    ^ ^ ^ =.,   ` 2.2.2.2.2.2.4.v.v.v.v.v._   2 -.-.-.-.    l.",
"l.    c 3                             3 b     L.E.V.y.f.l.l.V.z.m.    ^ ^ ^ ^ D   @ >.3.2.2.2.2.2.3.c.v.v.h.*   D -.-.-.-.    z.",
"z.i   0 v b c 4 = o o     o o = 4 c B B c   h S.L.y.k.a.l.V.V.z.l.    ^ ^ ^ ^ =.2   - %.2.2.2.2.2.2.2.3.;.<   w -.-.-.-.-.    M.",
"z. .    3 c c b n n B B V V B B n n v 3 X   O.S.m.y.y.i.z.J.z.z.l.    ^ ~ ^ ^ ~ ! 2     t ' *.1.<.&.I f     , ! -.-.-.-.-.    K.",
"l.f.o.      & 3 0 q c c c c q 0 3 &       } n.m.i.a.a.l.B.m.m.l.z.    ^ ^ ~ ^ ^ ~ ^ x X                 X x =.-.-.-.-.-.-.    m.",
"g.m.S.g.} ;                         + N 8.r.y.0.i.b.b.n.N.n.n.b.g.    ^ ^ ^ ^ ^ ~ ^ ^ ! A r $ X X $ r A ! -.-.-.-.-.-.-.-.    m.",
"U.N.S.S.J.Z.e.O.    +     +     } 8.l.y.i.l.i.g.b.U.B.F.U.F.Y.F.U.    ^ ^ ^ ^ ^ ^ ^ ^ ^ =.-.-.-.-.-.-.-.-.-.-.-.-.-.-.-.-.    F.",
"U.U.N.S.D.I.K.E.    P.P.P.P.    i.y.l.a.z.z.i.M.m.B.F.U.T.R.R.T.U.    ^ ^ ^ ^ ^ ^ ^ ^ ^ ^ ^ ( -.-.-.-.-.-.-.-.-.-.-.-.-.-.    T.",
"R.U.F.B.S.J.I.I.    P.P.P.P.    z.l.f.l.z.y.C.S.M.n.g.U.U.U.U.T.U.l   P ^ ^ ^ ^ ^ ^ ^ ^ ^ ^ ^ ^ =.-.-.-.-.-.-.-.-.-.-.-.Y   l U.",
"U.F.Z.N.S.D.I.I.    P.P.P.P.    l.l.l.l.l.g.Z.S.B.M.N.N.U.U.B.T.F.@.                                                        @.F.",
"U.U.U.C.M.S.L.I.    P.P.P.P.    z.k.l.l.y.U.E.D.B.B.n.i.T.E.U.U.U.U.@.l                                                 h { F.R.",
"U.U.F.U.M.S.L.L.    P.P.P.P.    l.l.l.f.m.E.E.J.M.M.m.N.U.U.U.U.U.U.U.b.9   5 g.L.I.Z.y.    P.P.P.P.    l.l.m.E.E.I.M.M.m.N.R.U.",
"m.m.M.M.z.M.B.L.    P.P.P.P.    l.l.z.y.J.J.E.S.M.a.V.m.B.B.M.M.M.N.g.9   5 t.N.S.L.f.k.    P.P.P.P.    l.y.E.L.E.S.M.a.B.n.B.N.",
"m.m.m.m.m.n.B.n.    P.P.P.P.    l.z.i.M.L.J.E.S.S.S.B.M.p.m.m.m.m.i.9   7 i.m.n.B.m.y.a.    P.P.P.P.    l.M.L.J.E.S.Z.J.G.M.g.M.",
"m.n.m.m.z.m.m.y.    P.P.P.P.    z.l.i.S.J.J.T.E.B.S.B.B.n.n.m.m.i.9   5 r.m.m.l.m.i.i.l.                y.J.J.J.E.E.S.Z.S.M.n.n.",
"y.l.y.y.y.y.r.i.    P.P.P.P.    f.i.n.S.J.J.T.I.L.L.L.B.M.t.y.w.9   5 r.i.i.y.y.w.g.i.g.                n.S.J.L.L.E.J.J.D.B.B.t.",
"p.M.y.l.l.y.b.n.    P.P.P.P.    F.F.m.S.G.J.L.E.M.S.L.S.m.i.t.9   5 q.M.k.l.l.i.a.n.B.N.    P.P.P.P.    b.G.J.J.J.U.M.S.D.S.m.y.",
"y.l.k.l. .h                                                       J y.l.k.l.z.i.M.m.U.U.    P.P.P.P.    U.M.S.J.I.J.I.J.K.D.y.l.",
"z.k.l. .                                                            } k.l.z.a.M.B.B.n.l.                T.N.S.S.J.J.E.J.J.m.k.l.",
"k.k.l.h   q B B V V V V V V V V V V V V V V V V V V V V V V V V b   u k.l.l.g.J.G.B.m.N.                F.F.n.B.J.J.J.E.Z.y.k.l.",
"k.l.z.    c v n V V V V V V V V V V V V V V V V V V V V V V V V V     l.z.i.J.U.B.L.B.m.    P.P.P.P.    U.U.M.B.S.J.I.J.g.k.y.l.",
"l.l.l.    v c c v b n B B V V V V V V V V V V V V V V V V V V V V     l.l.l.E.E.L.M.M.z.    P.P.P.P.    U.U.U.m.S.J.I.Z.f.f.l.l.",
"l.l.y.l   0 c c c c c v c c c c c c c c c c c c v c c c c c c c 0   j l.f.G.E.E.S.M.y.B.                M.M.M.m.V.V.L.l.k.k.l.z.",
"z.l.m.#.                                                            o.l.m.E.J.E.B.S.S.S.                m.m.m.m.g.S.M.y.k.k.l.L.",
"l.y.L.S.@.l                                                     j o.l.i.S.L.J.E.L.F.S.S.    P.P.P.P.    n.m.z.m.m.M.i.a.l.g.B.M.",
"y.m.S.L.L.J.E.    D.S.M.t.i.f.    P.P.P.P.    t.t.b.i.b.N.g.b.g.g.i.y.n.S.J.L.L.E.J.D.S.    P.P.P.P.    i.y.i.i.y.w.t.i.i.i.b.g.",
"B.N.B.D.L.L.E.    D.S.m.f.l.z.    P.P.P.P.    g.n.N.B.B.F.F.U.Z.B.F.F.n.S.S.L.J.L.M.S.D.                M.p.a.l.l.g.n.B.B.B.U.U.",
"U.U.M.B.D.E.L.    J.S.y.l.l.z.                M.n.U.F.U.U.E.U.U.R.R.U.F.m.S.J.J.L.U.L.I.                l.p.l.z.y.M.n.U.U.U.U.R.",
"U.U.N.V.S.J.J.    L.m.f.l.z.z.                B.M.b.n.U.U.R.R.R.R.U.U.U.N.B.S.J.K.I.J.U.    P.P.P.P.    k.l.z.i.B.B.B.n.b.U.U.U.",
"G.F.Z.N.S.Z.#.    #.y.l.l.z.M.    P.P.P.P.    S.B.N.N.B.U.C.U.R.B.G.U.U.F.n.S.J.I.K.K.J.    P.P.P.P.    k.l.l.l.B.S.S.m.N.N.U.B.",
"R.U.T.N.S.O.        ] p.l.l.Z.    P.P.P.P.    w.G.B.b.i.U.U.R.R.R.R.U.U.U.n.B.G.L.J.U.7.                l.l.y.G.E.L.G.B.N.u.U.R.",
"U.U.U.G.M.u   U U   u l.z.z.M.                X [ t.n.N.R.R.U.U.U.U.T.T.J.U.n.G.J.g.[ .                 l.l.m.U.E.L.M.B.N.n.U.U.",
"C.M.N.V.n.p   L Y   i l.M.S.k.                1     l [ 7.w.b.n.M.Z.m.n.u.w.$.{ l     1     P.P.P.P.    l.f.G.K.E.D.M.y.M.n.B.G.",
"m.m.m.m.M.}         ] z.D.z.m.    P.P.P.P.    m.#.z                               l  .t.    P.P.P.P.    l.m.L.J.E.S.Z.S.B.M.b.m.",
"l.m.l.m.m.g.o.y u ] a.M.V.m.z.    P.P.P.P.    L.Z.F.g.6.[ H m h 7   6 h m H } $.i.i.i.l.                i.J.L.J.E.E.Z.G.B.B.g.m.",
"t.g.i.i.i.i.r.i.i.i.g.C.g.m.g.                E.J.D.S.Z.M.u.f.y.g.g.g.g.g.g.i.i.t.y.f.i.                l.S.J.L.J.E.J.J.L.B.M.i.",
"p.m.k.a.l.l.y.m.B.N.F.F.J.Z.C.                E.M.S.D.S.m.y.l.z.z.l.y.M.k.a.z.l.u.N.N.B.    P.P.P.P.    n.S.L.D.I.E.M.V.S.L.z.y.",
"l.z.y.l.z.i.M.m.U.U.U.U.R.U.T.    P.P.P.P.    J.E.U.J.Z.y.l.l.z.m.f.l.l.i.l.l.y.M.n.U.U.    P.P.P.P.    U.M.S.L.K.K.K.L.L.B.k.l.",
"l.f.l.z.a.m.B.B.b.b.U.U.U.T.T.    P.P.P.P.    L.I.D.J.M.k.l.z.z.M.l.f.k.l.z.l.m.B.B.b.g.    P.P.P.P.    U.N.B.S.J.K.E.I.L.M.y.l.",
"k.k.0.N 5                                                                                                             7 J 8.k.l.",
"l.q.<                                                                                                                     1 0.l.",
"k.H   & c n V B V V V V V V V V V V V V V V V V V V V V V V V V V V V V V V V V V V V V V V V V V V V V V V V V V V V n =   J l.",
"l.i   c c c n B V V V V V V V V V V V V V V V V V V V V V V V V V V V V V B V V B V V B V B V V V V B V V V B V V V V B n   i z.",
"z.i   q c c c c c c c c c c v c c c c v c c c v c v c c c c c c c c c c c c v c c v c v c v c c c v c c v c c v c c c v p   i L.",
"z.G   & c c c c c c c c c c c c c c c c c c c c c c c c c c c v c c c c v c c c c c c c c c c c c c c c c c c c c c v q &   K L.",
"t.q.1                                                                                                                     3 u.f.",
"U.n.i.J 8                                                                                                             7 K u.F.F.",
"U.C.B.S.J.L.L.I.U.L.D.f.l.l.m.m.f.f.z.p.l.m.i.m.n.U.U.U.T.U.U.U.U.U.U.F.B.S.J.L.L.K.J.J.S.l.k.l.z.z.f.l.z.a.l.z.i.N.b.U.B.U.R.U."
};
