/* XPM */
static char *_a0fc34d61c041c289ce332354196af8BBHJdOfrmrjwklgT[] = {
/* columns rows colors chars-per-pixel */
"64 64 31 1 ",
"  c #CAB08E",
". c #D4B38F",
"X c #CEB492",
"o c #D4B692",
"O c #D5B995",
"+ c #DCBD96",
"@ c #D6BC99",
"# c #DCBE99",
"$ c #E0BF97",
"% c #E0BF99",
"& c #DFC096",
"* c #DEC29C",
"= c #E1C196",
"- c #E3C49B",
"; c #E6C89E",
": c #E8CB9F",
"> c #DFC5A1",
", c #E2C6A1",
"< c #E5CAA3",
"1 c #E9CDA5",
"2 c #E5CDA9",
"3 c #EACEA9",
"4 c #ECD1A6",
"5 c #E6D1AC",
"6 c #EDD3AC",
"7 c #EFD8AE",
"8 c #F0D7AE",
"9 c #F0D8AF",
"0 c #EDD6B2",
"q c #EED8B3",
"w c #F1DAB2",
/* pixels */
"-*6699w6661,;<:<;;,,,:,*#%%-3<1--,-#686ww6646,-,:,:,,;,;;*@%%,6,",
"><4668964841O#*#*o-#+#@o-,><2<2,,<,>3868w36641o&**-o>&+**O*,,>12",
"62689891884*=-;--+;+%-#,>00000000002189896668;---;-%;&-*=,,00660",
"00116999696+--:<*+--;--1<223000q0000<1887w874+--;1*&=*;--3<2,000",
"0024407966-=-:::;-&-;&643,>00000q00053669966-=-;;1;-=-;&633,>5qq",
"6052668994+$-:1<;=--=,66325<030q56606>468994+=-;11;=--=<66615,00",
"000536887*$$=:4:;=--*ww863,>000000000616897&==-;4-;=-;&qw863,>00",
"6666<6691+$-:4-;---&19w81,1<0000005666,6674&==;4-:=--&17w83%2>00",
"<<<1,338&&&-44-;-;--6ww4<-6<5<1121<<3<;146*&$-44---;--89w41,6<11",
";<<,<,6,&&=,7;<--;#486w66661*<<,,,,,,,,-6,+&-,6;<-;;*669w84661%,",
",;,,--,@*--6,1-;--&688ww6844<>;;;<<<,;,;>#-%,3,1-;,--6968w6863<-",
".-+++%o>->,2<<,>,,<6698w46643O&&##o;++++X*>,,2<<,,,><4698w66631O",
"%,=--#,<5302705700<369671666*=-:;$=,=--+,,03500000662466686686-%",
"%-----1<32000qqq00024697w866&--:;-*=%;-*3<32000q00q00236999886$-",
"-$--%333>>00q0qq0qq54889w67*--;;<;;=-;+631,>350qqqqqq54469966-=-",
"=---,863252050q265741169994+=--4<;$=-=,666122002q53066<488883+$:",
"=-;*7w661<%000000066336686*=+=;4:;=-;%8w666,#0qqq00060436676*==-",
"--=,ww8<<<2000060006624893+=--4;;=-==,ww81;<<6060000687>6673+=--",
":--89w4<-3<21121<1,11,346*$=-:4;--;-#88w11-3,233<12<<1<<168*==-1",
";$166984663-,1<<,<<<<,-8,+-%:7::--;$388w66663>,111,,;<<<*6,$==-8",
"--688w96464-,;*;;<,;;;,,@%%%6,1--,-#688886644,,,,,,<;<,,,,#%=;4<",
"*<1898w67643o@&&+.*Oo++ >,,,2,,>,--,1888w86864o++##.*Oo+@X>>*,2>",
"621899w,764*=-:--$,-#-%-,53660055062388881684;==;;-$:$---->33575",
"00348999677&--;1-#-%;-#3<53000qqqq00<48888884&--;,*+-$--#1<620qq",
"q053487967*-=::<--&-;&141>>0000qq00053687967>=-:;:;-=-;*361,%000",
"0662469994&=-;4<----=*664<22033q550352189996&=-;43--=-=*66615203",
"000236896*=&=;6-;=--&qw633>#0qqqqq008318797*=&=-4-;=-:-qw664>#00",
"060616891+=-;4-;--;&<ww631<20088008006,4676+=-;4;;---=,ww81<<200",
"<<11,466*&&=44-;=--#88w41%4,332213<<11,147*&&-17-:-;--86w41%3<22",
",<<,,,4,&&=;7:<-;;%<96w63661><<1<1<<<,<,4<+&&*7:<---%368868133><",
",,,,<;<+&#-5:1;*--#699ww6611,,,,<,;,,,,<<**&-4<1*-;-%688ww3861,,",
"+--+$&X****2>***##,6868988841o+++#o-#+++ ****2*>****<4888888661O",
"%:%%,%%<5205300060<386891666:&=;;-$<=$--%<3350030035,388883668;+",
"$---%%3;03000000000248989777+--;<#+-=;;#1,0500qq00qq0<60889086+-",
";$%<%333>>50000000026469776*&=-;<--$-;%334,%0qqqq00q824668886;=-",
"==,%-646<22030q030643169986&=;;41:-=--*66322<533q56603<388886+=-",
"=-:$0w663,%0wwqwq000246897*=+=-7-:=--=6q811,#0qqqq0080236977*=+=",
":=--ww643<<0000000060<6694&=;=::;---=,ww816<20000000000<4676&&--",
";-+6886,%3,3633421114,347-&==17-:=--&8ww8;+1,2643333<31<346-==-:",
";-<68w43362>,<,<<<<<<,-61+&=-7:<-;;-,w6w18363>,<<<<<<<<<,41+==;9",
"-+888966644-<,,,,;;,,<;1#%%%13<;-;-+688896664-,,<,,-,,<,;<#%%-31",
"@,3888w86743O*&**+**+#@o@##><*>#%*+,6888w68643@##*#+-#+##X+@##>*",
"3<3688w<666<=-:--+,=%--#,2237605053>16889<484:=-:;-+<=#--#,22200",
"00368999676&--;;**-=--%1,00000000q00166899687===;,-+;$--#1<00000",
"0024886976<&-;;<;-=-,*<31,,0000qq000214899761&-:;1--=-;-133,>000",
"566<189976&&-;11;-=---883<22000q33003,669996*=-;<1;-=;-*66622203",
"qqq246898;==--4;;=--*68663>@6qqqqqq00234888,&+=;4-:=--+68833,#00",
"000614894+=--:<-----,ww633220000000006<6896+&--:1;----,8w833<200",
"2133,338*$==17=;---%88w8;$1,6634443312,347-$$-:8=;---*68w41+1,63",
",1,,1<81+$=-7;:-;,%186w48131,,<,<,;<11,,61++==8<1--;-,88w6666<,<",
",,;,,-3#$-=311;-,-$688ww6361>,:<<,,,,<,,3#$-=111;-;-+888996683*<",
"+&**##O@+**2*,&*-%-6886w8883<+*&*-#>-%%#O+*+*3,,**-%;1889w66811@",
"+<==--#<2262755635268888<866,=-:,;+<=---@<22233035332388891641<$",
"--*--#1,000000qqq00248888866+---<+$:$--+1,00000000005138979786&-",
"-&-;-<33>>000qq000w<1888868<=--;<--$%,-,33>>00000000023869967<=-",
"==--*661,22005q466033168886+--:1<;==-;#833,22000q00002<389996+-=",
"==;*486632#0qqq00q0q566877*=+--4:;=-:$36831<#0qqq0066q<36876,=+-",
"----ww613,,0qq00w6066<6874&==-:4;---=-ww848;,00qq0qqq00146w6+=--",
"--&6ww8;+3<0666361334<469;&==:7=;---+6ww4;+1,5036465463,449-==-:",
"--,6ww1636<,,<2,<<<<<<,64+==;7:<----*99w18162,<<<<<,,<<<,66+==-4",
";+688w86661-<,<<,<<<<<,3*&*=34,--;;@688986661*,,,,,,,,1<,3#%==16",
"+-6888w6864<###*#+###+#@o++*5>;*#-+*6889w66663*-->--#--#-@o@O+1*",
"6<18888<846<%-<,;+<-%;-#,2333306333<188891666<+-;-,+<----#,22654",
"06148888888%---,%--%--#<,07000000000166899684-=-;;-%;#--#<,00000"
};
