/* XPM */
static char *b2d039f6b98146bcf25f463072b40f21g4InByUZdb7QP4W1[] = {
/* columns rows colors chars-per-pixel */
"64 64 183 2 ",
"   c #010103",
".  c #0B0304",
"X  c #01060C",
"o  c #02090E",
"O  c #0A0909",
"+  c #150607",
"@  c #1C0306",
"#  c #13100A",
"$  c #020613",
"%  c #000A13",
"&  c #000F1A",
"*  c #00111D",
"=  c #181613",
"-  c #200206",
";  c #2C040A",
":  c #34050C",
">  c #3D070E",
",  c #27231B",
"<  c #2C251C",
"1  c #30281D",
"2  c #090C25",
"3  c #001623",
"4  c #001827",
"5  c #0C1129",
"6  c #001B2B",
"7  c #0E1336",
"8  c #001E32",
"9  c #002235",
"0  c #00263B",
"q  c #00293E",
"w  c #252525",
"e  c #342E23",
"r  c #382F22",
"t  c #3A3327",
"y  c #430A13",
"u  c #4A0A14",
"i  c #570D19",
"p  c #65111D",
"a  c #6F0E21",
"s  c #700E23",
"d  c #6D1321",
"f  c #7B1625",
"g  c #41372A",
"h  c #4A4134",
"j  c #4D4538",
"k  c #574C3B",
"l  c #131A48",
"z  c #151C52",
"x  c #002E45",
"c  c #012D49",
"v  c #19214A",
"b  c #013550",
"n  c #013954",
"m  c #013E5C",
"M  c #1C266A",
"N  c #202A60",
"B  c #242F6B",
"V  c #222E7F",
"C  c #014465",
"Z  c #02466B",
"A  c #014D70",
"S  c #01547D",
"D  c #5E5140",
"F  c #645744",
"G  c #6A5E4B",
"H  c #6E624E",
"J  c #75654F",
"K  c #7A6C55",
"L  c #7C705C",
"P  c #797979",
"I  c #861529",
"U  c #971D2F",
"Y  c #9B1530",
"T  c #9E1E30",
"R  c #A81935",
"E  c #B8193A",
"W  c #A52133",
"Q  c #AB2236",
"!  c #B8253A",
"~  c #C31C3E",
"^  c #C5273E",
"/  c #CC2241",
"(  c #CE2941",
")  c #D42A43",
"_  c #DB2D45",
"`  c #E02C47",
"'  c #E52D49",
"]  c #EA2F4A",
"[  c #EF314C",
"{  c #85745C",
"}  c #8E7B61",
"|  c #937F62",
" . c #968265",
".. c #9A876B",
"X. c #A38D72",
"o. c #A49275",
"O. c #AB9577",
"+. c #B49B7A",
"@. c #BAA17E",
"#. c #29368D",
"$. c #303E8D",
"%. c #283592",
"&. c #2A3896",
"*. c #025484",
"=. c #015A85",
"-. c #015E8B",
";. c #025E94",
":. c #35459A",
">. c #01618D",
",. c #016492",
"<. c #02639C",
"1. c #016B9C",
"2. c #3443A4",
"3. c #3A4AA6",
"4. c #3A4BAD",
"5. c #3D4FB2",
"6. c #3F51B5",
"7. c #026AA5",
"8. c #0172A6",
"9. c #0176AC",
"0. c #0178AE",
"q. c #0373B5",
"w. c #027DBA",
"e. c #037CC1",
"r. c #0183BE",
"t. c #0286C3",
"y. c #0189C6",
"u. c #0386CC",
"i. c #028CCB",
"p. c #0290CF",
"a. c #028DD4",
"s. c #0292D5",
"d. c #0296DA",
"f. c #0299DE",
"g. c #029CE4",
"h. c #02A0E7",
"j. c #02A3EC",
"k. c #02A7F1",
"l. c #02A9F4",
"z. c #888888",
"x. c gray61",
"c. c #B29E80",
"v. c #BAA688",
"b. c #A6A6A6",
"n. c #C2AB8A",
"m. c #C4A988",
"M. c #CDB18B",
"N. c #D4B58F",
"B. c #C2AF91",
"V. c #CDB492",
"C. c #CBB697",
"Z. c #D4B691",
"A. c #D5B995",
"S. c #DCBD95",
"D. c #D5BC99",
"F. c #DCBE99",
"G. c #E0BF97",
"H. c #E0BF99",
"J. c #DFC096",
"K. c #D7C19E",
"L. c #DEC29B",
"P. c #E1C196",
"I. c #E3C49B",
"U. c #E6C89E",
"Y. c #E8CB9E",
"T. c #DEC5A1",
"R. c #DDC8A5",
"E. c #E2C6A1",
"W. c #E5CAA3",
"Q. c #E9CDA5",
"!. c #E5CDA9",
"~. c #EACFA9",
"^. c #ECD1A6",
"/. c #E6D1AC",
"(. c #EDD3AC",
"). c #EFD8AE",
"_. c #F0D7AE",
"`. c #F0D8AF",
"'. c #EDD6B2",
"]. c #EED8B4",
"[. c #F1DAB1",
"{. c #CECECE",
"}. c #F4F4F4",
/* pixels */
"I.L.(.(.(.[.`.(.(._.Q.E.U.W.W.Y.E.E.W.W.E.I.E.L.S.H.I.I.~.W.Q.H.E.E.I.F.(._._.).[.(.(.(.Q.W.I.Y.E.W.W.U.W.Y.U.U.E.T.F.H.H.E.(.W.",
"T.W.^.(.).).`.(.(.^.(.W.A.S.I.F.L.Z.I.S.S.F.F.Z.T.E.E.E.!.!.W.!.E.W.E.T.~._.)._.[.~.(.(.^.Q.A.G.J.L.I.Z.T.J.S.F.F.A.F.T.T.E.!.W.",
"(.!.(._.`._.`.Q._.(.(.I.I.I.U.U.I.J.E.S.I.I.F.E.!./.'.~.'.(.'.].'.'.'.!.Q._._.(._.(.'.^._.I.P.I.U.U.I.F.U.S.J.I.G.E.W.'.'.'.(.'.",
"'.'.Q.Q.(._.`.[.)._.^.S.I.I.I.E.J.H.P.I.U.I.H.~.W.!.!.'.'.'.].].'.'.'.'.W.Q._._.).[.(.)._.S.I.I.U.W.I.S.I.I.E.I.I.~.W.!.E.(.'.'.",
"'.'.!.^.^.'.).`._.(.I.P.I.Y.Y.Y.U.I.J.I.U.S.(.Q.Q.E.T.'.'.'.].].].'.'.'.!.~.~.).[.`.).).I.P.I.Y.U.W.U.I.P.I.Y.J.(.~.~.E.T.~.'.].",
"(.'./.!.Q.)._._.`.^.S.P.I.Y.Q.W.U.P.I.I.P.E._.(.(.W./.W.'.~./.'././.'.(.(.E.Q.)._._._.^.S.G.I.Y.^.W.I.I.I.I.P.W.(.(.(.W.!.!.'.'.",
"'.'.'./.^._._._.).J.I.G.I.I.(.I.U.P.I.U.J.[.[._.~.~.W.H.'.'.'.].'.'.'.'.'.~.W.(._.`.).J.P.J.I.I.(.I.I.P.I.I.P.[.[._.(.(.T.E.'.'.",
"(.(.(.(.!.~.(._.Q.S.P.I.I.^.I.Y.I.I.I.J.Q.[.[._.Q.E.Q.!.'.'.'.'.'.'.(.'.(.(.E._.(.).^.S.P.I.I.^.I.Y.I.I.I.P.W.`.[._.W.T.Q.T.'.'.",
"W.W.W.Q.E.Q.~._.L.J.J.I.^.^.I.I.I.I.I.I.(._.[.Q.Q.U.Q.W.Q.!.Q.!.W.Q.W.Q.!.Q.Y.W.^.).S.S.I.I.Q.^.I.I.I.U.U.I._.).[.^.Q.U.~.W.Q.Q.",
"U.W.W.E.W.E.(.T.J.J.P.W.).U.W.I.I.U.P.(.).).[.).(.(.(.Q.L.W.W.E.W.E.E.E.E.E.W.L.(.E.S.I.H.E.).Y.W.I.U.U.F.Q.)._.[._.(.(.(.Q.H.E.",
"E.I.E.E.I.I.E.F.J.I.I.^.U.!.I.Y.U.I.J.(.(._.[.[.(.(.^.^.E.E.Y.U.I.W.W.W.E.U.W.E.T.S.G.I.H.~.W.!.I.U.E.I.I.(._.)._.[.(._.(.~.W.I.",
"N.E.S.S.H.F.Z.T.E.T.E.!.W.W.E.T.T.E.W.(.(._._.[.Q.(.(.(.Q.A.J.J.H.F.A.I.S.S.S.F.V.L.T.E.!.!.W.E.E.E.E.E.W.Q.(._._.[.(.(.(.~.~.A.",
"H.Y.G.H.I.F.E.W.'./.~.'.'.'.(.'.'.(.!.~.(._.).).^.(.(._.I.I.I.U.U.G.I.W.P.I.I.J.E.W.(./.'.(.'.'.'.'.'.(.!.~.(._.)._.(.(.(.(.H.P.",
"H.I.H.U.I.I.Q.W.!.!.'.'.'.'.].'.'.'.'.!.^.(._.).[._.).^.S.P.I.U.Q.J.S.P.H.I.I.J.Q.W.!.Q.'.'.'.'.'.'.'.'.'.!.Q._._.)._.)._._.G.I.",
"I.G.I.U.F.~.~.~.E.T.!.'.].].].].'.].].!.Q._.(.`._.).).L.I.M. .k # e G  .m.S.S.^.~.(.E.T.~.'.'.].'.'.'.].]./.Q.(.(._.`.)._.I.I.I.",
"P.I.I.I.E._._.~.W./.!.'.'./.]./.(.^.).(.!.Q.)._._.).~.Z.| . p Q ) ^ U p ; < X.W.(.~.Q.!.!./.'.~.].'.~.'.'.^.W.^.(.).`._.Q.G.P.P.",
"P.I.U.S.].[.(.(.~.E.H.'._.'.'.'.'.'.(.'.!.^.(.'._.(.m.r   R [ [ [ [ [ [ [ R @ w X.Q.~.E.H.'.'.'.].'.'.'.(.'.~.!.(.)._.).L.P.S.I.",
"I.I.P.W.[.[._.W.W.W.!.'.'.'.'.'.'.(.(.'.(.W.^._.'.O.< 8   ( [ [ [ [ [ [ [ [ ` T + F m.Q.!.'.'.'.'.'.'.'.(._.(.W.(.(.].^.S.P.I.I.",
"I.I.J._._.`.^.Y.U.~.E.!.~.Q.Q.Q.W.W.W.Q.W.W.Q.~.X.3 *.<.  ] [ [ [ [ ` ) ] [ [ [ ) a < o.T.!.Q.Q.!.W.W.W.W.Q.W.W.W.Q._.J.P.P.I.^.",
"Y.I.Q.)._.[.(.(.(.(.Q.I.E.Q.W.W.W.E.Q.E.W.E.L.X.0 t.u.7.  _ [ [ [ ! O # + W [ [ ] ` Y - } D.E.Q.W.W.W.W.Q.W.I.W.I.(.W.S.P.P.I._.",
"I.J.(._._.[._.(.(.(.^.I.E.E.E.U.W.E.E.U.I.W.O.O i.l.s.7.$ ! [ [ [ u x.}.b.w u [ [ [ ] E ; k F.E.E.W.W.W.U.E.W.W.E.E.F.I.P.I.^.W.",
"I.Q.Q._.).).[.(.(._.^.Q.Z.S.S.S.S.N.F.S.S.+.= i.l.l.g.q.8 W [ [ [ i P }.}.{.w Q [ [ ] ] E @ k Z.S.S.F.N.F.S.Z.A.F.V.L.T.E.E.!.T.",
"'.!.Q._.)._.[.W.`.(.(.L.I.P.Y.I.I.G.W.G.S.F -.l.l.l.l.u.Z : [ [ [ ^ O b.}.}.z.u [ [ [ [ ' E u J I.Y.I.S.W.P.P.I.H.E.T.~.!.(.(./.",
"'.'.~.^.(.`._.[.(.).(.J.P.U.U.W.H.F.I.G.O.9 h.l.l.l.l.g.q.6 I ] [ [ W . z.{.P > [ [ [ [ ] ' R ;  .W.F.F.I.P.U.I.F.Q.E.'.!.'.].].",
"'.'./.(.^._._.`.(.(.U.P.I.U.Y.Y.U.I.J.A.O r.l.l.l.l.l.l.u.*.- ( [ [ [ ^ p : > . R [ [ [ [ [ ) R + v.Y.I.G.I.U.J.~.(.Q.E.H.(.'.'.",
"'.~.~.!.^._._.`.`.(.S.P.I.U.Q.Q.I.I.P.+.9 g.l.l.l.l.f.t.l.e.4 y [ [ [ [ [ [ ] Q . U [ [ [ [ [ ^ i k U.I.P.I.I.T.(.(.(.Q./.!.'./.",
"'.'.'./.Q.(.)._.).J.P.J.I.I.^.U.U.P.I.K A l.l.l.l.j.n =.k.g.9.6 f [ [ [ [ [ [ [ ^ @ I [ [ [ [ ' E : ..P.I.U.J.].[.(.(.^.E.F.'.].",
"(.'.'.(.!.(.(._.Q.S.P.I.I.^.U.Y.I.I.G.< i.l.l.l.l.h.  s.l.k.g.<.o T [ [ [ [ [ [ [ ^ : ` [ [ [ [ ~ I t N.I.P.E.[.[.).Q.W.W.!.'.'.",
"W.W.W.Q.E.Q.(.).L.J.P.I.^.^.I.I.I.I.@.6 l.l.l.l.l.h.% t.l.l.j.s.;.& T [ [ [ [ [ [ [ [ [ [ [ [ [ ' R . +.I.I._._.[.Q.Q.H.!.W.!.~.",
"W.W.W.W.W.W.^.E.J.J.J.Y.).Y.Q.I.I.I.{ C l.l.l.l.l.k.C 3 8.9.o 1.g.>.$ d [ [ [ [ [ [ [ [ [ [ [ [ [ ~ y { H.Q.(._.[.(.^.(.~.~.H.W.",
"E.E.E.E.U.U.W.F.J.H.I.^.Y.Q.U.I.I.I.D -.l.l.l.l.l.h.* C 3   6 d.k.g.<.  i ` [ [ [ [ [ [ [ [ [ [ [ / I g H._._._.[.[.(.(.(.~.W.T.",
"S.I.I.S.S.F.Z.F.K.L.K.!.T.K.F.K.I.S.h 8.l.l.l.l.l.h.  d.l.r.q h.l.l.h.w.c y Q [ [ [ [ [ [ [ [ [ [ / Y 1 W.^._._._._._._.(.~.Q.D.",
"G.Q.H.H.H.H.H.W.~.!.(././.'.'./././.h 0.l.l.d.1.j.j.x S d.0.X 9.g.s.8.d.s.S $ f ( [ [ [ [ [ [ [ [ ^ s G R.~._._.)._.Q.(.(._.I.G.",
"G.I.H.U.U.H.~.W./.'.'.'.'.'.].].].).j 8.l.l.n x k.j.q 6 X   X *     6 g.l.j.w.b . d _ ] [ [ [ [ ] R + c.'.!.~._._._.`.).).(.S.I.",
"I.G.H.U.H.Q.~.Q.R.T.'.'.'.'.].].].'.F >.l.k.  p.l.h.  d.j.9.x h.j.n ,.l.l.l.k.k.y.9 . : p ! _ ^ s - j ~.].!.Q.(.)._.`._.).E.P.I.",
"P.I.U.H.T.(._.~.!.!.Q./.'./.].'.^.K.K m l.l.6 S l.h.* 9.k.r.4 d.l.Z n l.l.k.i.l.l.k.s.w.m &       t D.'.~.(.W.(.(._.`.`.(.S.P.I.",
"P.I.I.I._.[._.~.~.W.H.'.].'.v.L e   X * k.l.r.* A ,.4 * =.S   8 >.n   x 1.C $ d.l.l.l.l.l.l.u.*.$ B.].].).).!.^.^.)._._.L.P.S.I.",
"I.P.I.I.[.[._.Q.~.E.W.'.D.h 7 B :.4.%.$ 1.l.l.p.>.S   ,.-.>.9.8.>.>.r.,.=.,.f.l.l.l.l.l.l.s.*.< v.'.'.'.(.'.'.W.^.).`.(.S.J.I.I.",
"I.I.S._._.[.~.W.H.~.T.~.t v 6.6.6.5.&.z x j.l.l.l.h.  p.l.l.l.l.l.l.l.l.l.l.l.l.l.l.l.l.a.Z = v.~.Q.~.Q.!.Q.Q.E.^.(._.L.P.P.P.Y.",
"I.I.W._._.[.^.~.~.~.~.T.X.$ 3.6.6.5.4.V   8.l.l.l.j.C n i.i.C 0.l.l.l.l.l.l.l.l.l.l.k.w.c w n.W.W.W.W.W.W.W.W.W.I.^.Q.S.P.P.U._.",
"I.S._._._._.'.(.(.(.Q.I.L.D z 4.6.6.6.2.B X 0.k.l.l.f.*.o X C f.l.l.l.l.l.l.l.l.l.a.*.* { A.W.E.W.E.U.U.E.E.W.E.E.W.F.H.H.I.!.Q.",
"S.W.Q._.).).[._.(.(.^.Q.A.Z.G 5 $.4.6.6.2.M X -.d.l.l.l.l.l.l.l.l.l.l.l.l.l.j.i.=.& H m.^.^.S.F.F.L.F.S.I.F.F.F.F.V.F.D.F.F.W.K.",
"(.W.~.(._._._.W.(.).^.U.J.I.I.| g O 5 2 B 6.#.7   b y.g.h.j.l.l.k.j.h.g.s.S & e H m.(.(.^.Y.J.I.U.U.I.S.W.G.F.I.I.I.T.~.~.!.(.'.",
"'.'.!.(._.[._.`.).).(.J.I.I.Y.Y.F.M.+.F v 6.6.6.:.7   X 3 8 0 0 0 8 3 X   H V.(.).`._.`.(.P.P.I.U.E.I.S.I.G.I.I.F.Q.E.'.'.'.'.'.",
"'.'.!.^._._.(.`.(.).W.J.I.Y.U.Y.Y.P.I.{ l 6.6.6.5.&.z G C.C.B.v.B.C.D.R.R.~.^._.).[.).(.W.J.I.U.U.Q.I.I.I.I.I.I.Q.~.~.E.T.'.'.'.",
"/.(.(.W.Q._.`.`.).(.J.L.I.Y.W.!.U.I.P.+.2 3.6.6.5.%.z L '.'.'.]./.).'.(.(.E.Q._._.).).(.F.P.I.Y.W.Q.Y.I.P.I.I.L._.(.~.W.!.!.'.~.",
"].].'.~.^.(._.`._.U.P.S.I.I.^.Y.U.P.U.S.g B 5.6.2.%.2 X.'.].].].].].].'.'.!.Q.(._._.).E.P.S.I.I.^.I.E.P.U.I.J.(._.(.~.~.!.F.'.'.",
"'.'.'.).W.^._.`.(.S.P.I.I.Y.W.Y.I.P.P.I.Z.t N 5.2.M , R.'.'.'.'.).'.'.).(.'.R.(.)._.).S.P.I.I.Y.Q.U.I.I.I.I.E._.[._.~.Q.!.W.'.'.",
"!.Q.~.~.E.(.(._.I.G.P.I.Q.(.P.U.I.I.I.I.(.K.h 7 z O v.T.(./.~.~.~.~.Q.Q.~.Q.E.~.(.).I.P.G.I.Q._.I.U.I.I.I.I.(._.[.(.W.S.Q.W.~.(.",
"W.W.W.W.W.W.^.Q.S.G.P.I.).U.Y.I.I.I.I.W._.(./.O.j ..Q.W.I.W.W.W.W.Q.W.W.W.Q.E.E.^.!.S.G.G.I._.W.Q.I.I.I.I.E.).(.[.^.(.(.~.Q.T.W.",
"E.I.I.W.E.E.Q.F.G.H.I.~.^.W.U.I.I.U.F._._._._._.(.(.(.Q.T.E.Y.W.W.E.E.E.E.W.E.E.Q.F.I.F.P.Y.Q.W.Y.I.U.U.F._._._.[.[.^.(.~.Q.I.W.",
"S.L.F.F.D.F.A.S.F.F.J.!.L.W.L.L.I.H.E.(.)._.'.[._.(._.Q.W.S.I.S.J.I.L.L.L.I.H.F.A.S.F.L.J.Q.T.E.J.J.I.G.U.Q._._._.[.).(._.~.Q.D.",
"S.!.P.I.I.I.F.!.!.!.(.!.(./.(./.~.~.!.~._._._.`.W.(.(.(.W.S.I.Y.E.U.S.W.I.H.I.I.D.!.!.~.~.'.~.'.!./.'.!.!.Q._._._.`.Q.(._._.W.S.",
"P.I.S.I.I.S.Q.E.'.'.'.'.].'.].].].'.'.Q.Q._._._._._.(.(.S.I.I.I.W.S.I.I.H.I.U.S.Q.E.'.'.'.].].'.].'.'.'.~.!.~.(.`.)._._._.Q.S.I.",
"I.J.I.U.I.W.~.Q.T.T.'.'.'.].).].'.'._.!.^._._._.[.(.).E.I.I.I.Y.W.I.I.P.H.E.H.W.Q.Q.T.T./.'.'.'.'.'.'.'.'.!.~._.).).`._.).W.G.I.",
"I.P.I.I.L.(.(.~.W.!.!.'.'./.].^.(.'.'.~.Q.Q.(._._._.).S.P.I.Y.Q.Q.I.I.P.I.E.F._.~.Q.!.W.~.'.(.(.].'.'.'.'.~.W.~.(._._.`.(.S.P.I.",
"P.I.U.J.(._.(.(.!.W.F.'.].].].'.'.'.'.'./.^._._.).).I.P.S.U.I.^.I.Y.I.I.I.P.!.).^.(.Q.W.H.'.].].].'.'.).(.].W.(.^.`._.).E.P.S.I.",
"P.I.I.I.[.[.(.Q.~.W.W.].].].].'.].'.'.).(.!.^._.).^.J.P.I.P.Y.Q.U.I.I.I.I.P.[.[._._.(.W.E.'.'.].].'.'.].].'.'.W.(._.).).S.P.I.I.",
"I.U.S.(._.[._.U.F.~.E.~.'.~.~.~.^.~.~.~.^.E.(.^._.U.J.J.I.Y.).P.Y.I.I.I.S.(.`.[.^.I.S.Q.!.~.'.~.(.^.(.!./.^.~.E.^.(.(.E.G.G.P.Y.",
"I.I.E.).[.[.Q.(.~.(.Q.T.W.W.W.!.W.W.W.W.W.W.E.(.Q.J.P.P.I.(.W.W.I.I.I.I.I.`._.[.Q._.~.Q.W.T.W.W.W.W.W.W.E.W.Q.W.U.^.^.S.G.P.I._.",
"U.S.(.)._.[._.(.(.(.Q.I.W.W.W.E.E.E.W.E.E.Q.E.Q.L.J.J.I.Q.^.W.Y.U.U.U.F.(.).)._.).~.(.(.Q.E.E.U.W.W.E.E.E.W.W.E.E.~.F.S.J.P.Q.(.",
"S.I.~._._._.[.(._.(.^.W.F.F.F.H.F.S.I.F.F.F.F.D.A.S.S.F.!.E.E.J.F.F.S.F.(._._._.[.).).(.~.Q.F.I.L.I.L.I.F.I.I.H.H.D.A.S.N.J.W.L.",
"(.W.Q._._._._.W._.^.(.W.H.I.W.E.U.S.W.I.H.I.I.F.W.!.~.!.~./.'.(.~.~.~.!.~._._._.`.Q.(.(._.W.S.I.U.U.W.A.W.I.I.E.I.F.!.!.!./.(.(.",
"'.~.Q._._._._._._._._.I.P.H.U.E.H.I.I.G.I.U.F.W.E.'.).'.'.'.'.'.'.'.'.(.Q.~.)._._._.(._.^.I.I.I.I.U.I.H.U.S.I.I.J.W.E.'.(.'.'.'."
};
