/* XPM */
static char *cfe8d934ed97461bbefbb2e20646118fAdnjIR9XukS3j64B[] = {
/* columns rows colors chars-per-pixel */
"64 64 210 2 ",
"   c #020201",
".  c #0B0807",
"X  c #140C07",
"o  c #16120A",
"O  c #1B150D",
"+  c #090C15",
"@  c #1C0D10",
"#  c #0B111E",
"$  c #1A1715",
"%  c #221607",
"&  c #23190C",
"*  c #2D1E0C",
"=  c #251A16",
"-  c #321A1F",
";  c #2A2319",
":  c #372813",
">  c #392B17",
",  c #332B1D",
"<  c #0D1320",
"1  c #141927",
"2  c #181E30",
"3  c #231F20",
"4  c #381D23",
"5  c #1C253A",
"6  c #232121",
"7  c #382924",
"8  c #3C3324",
"9  c #3D3529",
"0  c #422B0D",
"q  c #412D12",
"w  c #4A3317",
"e  c #583C19",
"r  c #443926",
"t  c #453B2C",
"y  c #4F2B33",
"u  c #522D36",
"i  c #473E31",
"p  c #5C401D",
"a  c #64441E",
"s  c #4E412C",
"d  c #58492E",
"f  c #4D4234",
"g  c #564A38",
"h  c #5E503F",
"j  c #624520",
"k  c #6B4A22",
"l  c #7B5528",
"z  c #665639",
"x  c #705D3A",
"c  c #74603E",
"v  c #232C45",
"b  c #2A3553",
"n  c #2B3757",
"m  c #303E62",
"M  c #663843",
"N  c #35446B",
"B  c #3C4C77",
"V  c #3F507E",
"C  c #5D5342",
"Z  c #675A45",
"A  c #6C5E4B",
"S  c #794551",
"D  c #6E604D",
"F  c #78664A",
"G  c #756652",
"H  c #766956",
"J  c #7A6B54",
"K  c #865D2A",
"L  c #8D612C",
"P  c #946933",
"I  c #986B32",
"U  c #AB7838",
"Y  c #B47D3A",
"T  c #88505A",
"R  c #826C46",
"E  c #87724B",
"W  c #816E57",
"Q  c #887556",
"!  c #917C58",
"~  c #945362",
"^  c #A35C6D",
"/  c #A75F70",
"(  c #857761",
")  c #8C7B63",
"_  c #927E63",
"`  c #AF6675",
"'  c #B6687A",
"]  c #BB823C",
"[  c #CA8B3C",
"{  c #99835B",
"}  c #A88B59",
"|  c #B48E54",
" . c #8F8067",
".. c #94846A",
"X. c #9A866A",
"o. c #9B8A71",
"O. c #A38D66",
"+. c #AC9366",
"@. c #B89B69",
"#. c #A38E73",
"$. c #BF8B7A",
"%. c #A99476",
"&. c #B39C7B",
"*. c #BCA277",
"=. c #C58A43",
"-. c #CE9146",
";. c #D59546",
":. c #D49548",
">. c #DB9A4A",
",. c #E19E4B",
"<. c #DEA258",
"1. c #E6A24E",
"2. c #E9A44E",
"3. c #ECA651",
"4. c #C5997C",
"5. c #C8A66A",
"6. c #D3AE6B",
"7. c #C7A977",
"8. c #D3AD73",
"9. c #D8B678",
"0. c #E5BD76",
"q. c #ECC37C",
"w. c #F1C67A",
"e. c #F3C87B",
"r. c #445685",
"t. c #46598B",
"y. c #495B8E",
"u. c #4E6298",
"i. c #51669E",
"p. c #546AA4",
"a. c #566BA7",
"s. c #5A71AE",
"d. c #5F78B8",
"f. c #617BBD",
"g. c #647EC2",
"h. c #C87286",
"j. c #CB7588",
"k. c #DB7D93",
"l. c #6681C6",
"z. c #6A85CD",
"x. c #6C87D1",
"c. c #6D89D3",
"v. c #718DDA",
"b. c #7390DE",
"n. c #7694E4",
"m. c #B29F81",
"M. c #BBA382",
"N. c #BAA586",
"B. c #D79A8A",
"V. c #EA859D",
"C. c #EB999A",
"Z. c #C6AA86",
"A. c #C4AC8A",
"S. c #CCB18D",
"D. c #D7B987",
"F. c #C1AE90",
"G. c #CDB493",
"H. c #CBB695",
"J. c #D3B692",
"K. c #D4BA95",
"L. c #DCBD95",
"P. c #D5BD9B",
"I. c #DCBE99",
"U. c #EAAB96",
"Y. c #E0BF98",
"T. c #EE88A0",
"R. c #F48BA4",
"E. c #FA8EA7",
"W. c #FF91AB",
"Q. c #FE99A9",
"!. c #FDA5A6",
"~. c #FFB7A4",
"^. c #DFC088",
"/. c #DFC096",
"(. c #D4C09C",
"). c #DEC29C",
"_. c #E3C38A",
"`. c #EAC889",
"'. c #F6CD85",
"]. c #F5CF8A",
"[. c #F5D08C",
"{. c #FAD38E",
"}. c #E1C196",
"|. c #EDC293",
" X c #EDCD91",
".X c #E3C49B",
"XX c #E5C89E",
"oX c #F9CA9B",
"OX c #F3D295",
"+X c #FCD690",
"@X c #FDD997",
"#X c #FDD69C",
"$X c #FFDC9C",
"%X c #DEC5A1",
"&X c #DFC8A6",
"*X c #E2C6A1",
"=X c #E5CAA3",
"-X c #E9CDA5",
";X c #E5CDAA",
":X c #EACFA9",
">X c #FFC7A1",
",X c #ECD1A6",
"<X c #E6D1AC",
"1X c #EDD3AC",
"2X c #EFD8AE",
"3X c #F0D7AE",
"4X c #F0D8AF",
"5X c #EDD6B2",
"6X c #EED8B3",
"7X c #F1D9B1",
/* pixels */
".X/.1X2X2X3X3X1X3X,X:X*XXX=X=XXX=XXX*X*X=X.X*X).I..XY..X:X*X-X*X.X*X.XI.1X3X3X5X7X1X1X,X:X=X%X=XXX=X=XXX=XXXXXXX*X.XI.Y.Y..X1X=X",
"%X=X-X2X2X2X7X:X,X3X:X-XK.L./.Y./.J..XI.L.Y.I.J.I.*X%X;X;X;X=X*X*X=X*X*X:X3X3X3X7X,X2X1X,X-XJ.I./.)..XJ.%X/.L.I.I.K.I.%X&X*X=X;X",
"1X;X,X3X4X3X4X-X4X,X3X.X|..X=XXX.XL.=XI..X.XI.*X*X5X:X5X5X5X5X6X5X5X5X;X:X3X3X3X3X,X2X<X3X.X.X.X.XXX.XL.=X/..X.X.X*X*X5X5X<X5X1X",
"5X5X-X:X1X3X3X7X2X2X:XL..X.XXX=X.XI.}.Y..X.X.X:X=X;X;X5X5X6X5X6X5X5X5X5X=X,X,X3X2X3X3X2X3XL..X|.XX-X).Y..X/..X.X.X;X-X;X=X5X5X5X",
"5X5X;X<X,X4X2X7X2X1X.X}.}.XXXX-X.X.XY..X.XL.:X,X-X*X%X:X5X6X6X6X6X6X5X6X;X:X:X2X2X2X2X2X).}..XXXXX-XXXXX/..XXX/.1X1X1XY.*X<X6X6X",
"1X5X<X;X:X3X3X2X2X<X/.}..XXX,X-XXX|..XXX.X*X3X1X5X=X;X;X6X:X;X6X<X5X<X1X1X*X:X1X2X2X4X,X/./.XXXX,X=X.X}.}..X}.=X1X1X1X:X<X*X5X5X",
"5X5X1X;X:X,X3X3X2X/.}.}..XXX,X.X.XS._ f i g ( &.P.-X*X).6X5X6X5X5X6X5X2X5X1X-X,X2X2X2X/.}.}.).XX=X*. .h i f D H.5X1X1X1X*XI.5X5X",
"1X5X1X1X=X3X3X3X-XL.}..X.X,X.XXXS.A q K l l j w , W A.%X5X5X5X5X<X;X&X%X%X%XP.=X-X2X-X/.}.}.S.#.r * p l l K a , F.3X:XI.:X*X5X5X",
"-X=X-X=X*X:X:X3X)././..X,X,X.X.X%.@ d [ ,.3.>.=.U k 8  .H.%XS.N.o. .Q H D G J Q o.&.*.S.D.&.Z w I ] ;.,.3.:.I & Z -X,X=X:X=X=X-X",
".X*X*X=X=X*X,X*X/./.}.=X2XXX=X/.) . X w K Y 1.3.3.,.I % C D h , 7 z F ! +.{ Q D s ; f C G 9 l =.3.3.3.-.P j * . @ *X,X1X3X-XI.=X",
"*X=X*X=X.X.X*XI./..X.X1X=X-X.X/.A ~ j.S @ % k 1.3.:.k .   s X._.@X@X$X$X$X@X@X@X@XOX*.Z .   : ] 3.3.U : . u ` ` - F.1X1X,X:X=X*X",
"J.Y.L.L.I.Y.G.%X*X).*X;X=X=X%XP.C / E.W.V.~ 4 & l * s J 7.$X$X$X$X$X$X$X$X$X$X$X$X$X$X$X X{ z ; e k - M h.E.W.h.4 N.:X3X3X,X-XK.",
"Y.-XY.Y.*XY.*X=X5X<X;X5X1X5X<X;XA ` R.W.W.W.~   ; E 9.$X$X$X$X$X$X$X$X$X$X$X$X$X$X$X$X$X$X$X`.+.r   M k.W.W.W.h.y A.,X1X3X3X.XY.",
"Y..X.X.X.X.X-X=X;X;X5X5X6X6X6X<XG ` E.W.W.k.u o } `.$X$X$X$X$X$X$X$X$X$X4X$X$X$X$X$X$X$X$X$X$X@XD.A 4 / R.W.W.h.- F.7X1X3X:XL..X",
".X}..X.XY.:X:X:X*X%X5X5X6X6X6X<X .M R.W.V.y $ 6.`.$X$X$X$X$X$X$X$X$X$X$X$X$X$X$X$X$X$X$X$X$X$X$X$X XE - ^ W.W.h.@ %X4X2X2X.X.X.X",
".X|..X.X*X3X1X:X=X<X;X6X<X<X6X;XM., V.R.y 8 5.'.{.$X$X$X$X$X$X$X$X$X$X$X$X$X$X$X$X$X$X$X$X$X$X$X$X$X`.F o h.R.~ Z 2X3X3X:XL.}..X",
"}..XXXL.6X7X1X1X:X=XY.5X5X5X5X5XH.g ` ~ , @.'.'.+X$X$X$X$X$X$X$X$X$X$X$X$X$X$X$X$X$X$X$X$X$X$X$X$X$X$X_.z 7 ' y %.5X4X3X/.}.}..X",
".X.X}.=X7X7X2X-X*X;X;X5X5X5X5X5X;X_ 4 X E 0.'.'.$X$X$X$X$X$X$X$X$X$X$X$X$X$X$X$X$X$X$X$X$X$X$X$X$X$X$X$X7.. 4 g P.,X4X<XL.}..X.X",
"XX.XL.2X7X7X,XXXP.K.M.P.=X-X-X=X;XA.i > 9.'.'.{.$X$X$X$X$X$X$X$X$X$X$X$X$X$X$X$X$X$X$X$X$X$X$X$X$X$X$X$X$XQ X o.%X,X4X).}.}.}.,X",
"XX.X-X2X2X7X1X).) + < . A G.=X=X=XA.i F '.'.'.+X$X$X$X@XOX`.OX$X$X$X$X$X$X$X$X$X$X$X$X_. X$X$X$X$X$X$X$X$X XO %.).<X=XL.}.}..X3X",
".XI.3X4X3X4X2X( v y.p.r.m 9 %.).=X%., 6.'.'.'.@X$X$X$X^.9 O s /.$X$X$X$X$X$X$X$X$XOX{ ; o { $X$X$X$X$X$X$X$XF J I.*XI.I..X.X<XXX",
".X-X:X3X2X2XP.2 i.v.n.n.z.V 6 ..S.J r '.'.'.'.#X$X$X$XJ d +.g { $XOX7.7. XD.*.`.$X_.8 O.F d ^.$X$X>X$X$X$X$X*.s Z.G.%X*X%X*X;X*X",
"5X;X:X,X2X2X..b g.g.V u.n.c.N i &.F x '.'.].'.#X>X>X!.' ' oX*.9.$XOXW , F d ; D.$XOX+..XC.^ T.~.$X$X$X$X$X$X^.$ Z.I.&X:X1X<X1X1X",
"5X5X:X,X1X2Xf B g.b   m x.x.v f M.Z E '.'.].9.9.$.` ' W.W.!.>X$X$X$XU.S = u 4.@X$X$X#X!.W.W.k./ ' 7._.$X$X$X^.; &.-X=X;X;X5X6X6X",
"5X5X;X:X,X3XZ B n.t.< B g.i.$ &.S.Z } '.'.5.s = - 4 u k.W.W.~.$X$X~.W.V.V.W.~.$X$X$X>XW.W.R.~ 4 4 ; ; +.$X$X^.r m.:X-X*X*X<X6X6X",
"1X5X1X;X,X1XH N v.g.s.c.n.y.= .XJ.A ! '.'.q.5.@.4.h.j.E.W.W.~.>X$XQ.T.V.R.!.#X$X$X$X>XQ.W.E.k.h.h.&.*._.$X$X^.; A.3X:X-X;X-X5X<X",
"5X5X5X;X-X3X..n z.n.n.n.n.y.. Y.I.W L ].'.'.'.{.~.j.~ T W.!.>X$X#X!.E.E.Q.>X$X$X$X$X$X~.W.h.T ' !.@X$X$X$X$X^.; P.,X1X:X*XI.5X5X",
"1X1X5X2X=X3XF.2 s.n.n.n.n.i.# _ L._ , ].'.'.'.9.A 4 X T >X$X$X$X$X>X~.~.$X$X$X$X$X$X$X$X>XB.7 @ r +.@X$X$X$X*.g &X2X-X-X=X;X5X5X",
"=X=X-X=X*X-X-Xi u.n.n.n.n.v.B 1 A z . 5.[.'.9.& s Q ^.$X$X$X$X$X$X$X$X$X$X$X$X$X$X$X$X$X$X$XOX+.z , O.$X$XOXg  .:X,X-XY.:X;X:X;X",
"=X=X=X=X=X*X:X_ n z.n.n.n.n.v.p.t.n . z `.'.q.} 8.{.$X$X$X$X$X$X$X$X$X$X$X$X$X$X$X$X$X$X$X$X$X$X X@.D. X X7.t N.4X,X3X:X:X:XY.*X",
"*X*X*X*XXX.X=XM.i y.n.n.n.n.n.n.b.p.1 $ } '.'.'.'.{.$X$X$X$X$X$X$X$X$X$X$X$X$X$X$X$X$X$X$X$X$X$X$X@X@.W E t C P.4X7X:X3X,X:X*X*X",
"L..X.XL.Y..XG.K...3 g.n.n.n.n.n.n.a.# $ > 5.'.'.'.'.@X$X$X$X$X$X$X>X$X$X$X$X$X$X$X$X$X$X$X$X$X$X@XQ ; 2 <   $ A H.7X3X3X3X,X=XP.",
"Y.=X.XY..XY.%X;X(.D 1 v.n.n.n.n.n.i.# N.Q ; { q.'.'.'.$X$X$X$X$X$X$X$X$X$X$X$X$X$X$X$X@X@X$X$X Xz # B z.n.z.p.v f &X,X,X2X,X=X/.",
"Y..XY..X.XI.=X*X5XN.f N g.n.n.n.n.p.# #.H...8 d 5.q.'.].@X$X$X$X$X$X$X$X$X$X$X$X$XOX^.^. X@X^.{ # i.x.l.t.r.n.l.b ..2X2X2X1XL.XX",
"XXY..X.XI.-X:X>X%XP.N.A b i.n.n.n.x.B ; ..S.N.G 8 E } 5.'.@X$X$X$X$X$X$X$X$X$X$X$X{ , 8 Q +.F ; y.n.c.V   5 z.n.B C 7X2X2X=X/.}.",
"}.}..X.X%X1X1X,X;X;X;X%XJ 2 p.n.n.n.v.p.6 G (.;XN.z o s x } ].$X$X$X$X@XO.O.*.^.{ $ t.u.5 < b s.b.n.b.u.+ v l.c.N A 7X2X,X/.}..X",
"}..XXX}.3X7X1X1X:X;XP.5X%XC y.n.n.n.b.b.f.# *.2X<X..& d : d 6.e.c ; 8 O # # +     N c.n.n.n.b.i.5 v p.z.z.b.n.p.1 A.4X2X)./.L.}.",
".X.X.X.X7X7X3X:X-X=X=X5XH.C p.n.b.n.x.x.g.5 C ..D O x w.q.q.e.e.} F r # p.s.u.t.r.l.n.n.n.b.u.$ k k O i.b.n.f.b J <X7X1X/./..X.X",
".X.XL.1X3X7X,X=XY.:X*X:XG.g s.b.x.b.l.u.N * k k a . { w.e.e.e.e.+X`.E 5 v.v.b.n.n.n.n.n.n.c.5 l >.>.L 5 z.s.m D G.,X3X)./._..X,X",
"XX.X=X2X3X7X,X,X:X:X;X%XA.f i.n.l.y.n + 0 ] >.[ ] . 5.w.e.e.e.e.+X{.} + f.c.b.n.n.n.n.n.n.c.+ ] 3.3.| % N 2 F A.).3X-XL./.}..X2X",
"XXI.3X3X3X4X5X,X1X:X:X*XL.G . v +   & I 3.3.3.2.[ X 5.w.w.w.e.{.+X+X@.8 B n.n.n.n.n.n.n.b.c.5 L ,.3.:.k   ( .X*X=X=XI.I.Y..X:X=X",
"P..X:X3X3X2X7X4X2X,X,X-XJ.Z.G Z D g ; l =.;.>.;.] % | w.w.e.e.e.+X+X`.x 5 x.c.b.b.r.+ 5 B B 5 > 1.3.3.I i I.I.I.L.G.I.I.I.I.=X).",
"<X=X:X3X3X5X4X-X1X1X,X*XL..X.XK.).Z.#.Z 8 : w e : . x w.e.e.e.'.+X+X+X{ # p.v.v.t.; E { z g 8   =.3.,.L g Y..X.X.X.X*X;X;X5X1X<X",
"4X5X:X,X3X4X3X4X2X2X2X/..X.XXXXX(.K.D.S.A.*.#.o.#. .; 6.e.e.e.e.+X{.{.0.. N d.y.. J `.q.0.8.d   e I P 0 ..Y..X.XI.-X*X5X5X5X6X5X",
"5X5X;X,X,X3X3X4X2X1X=XL..X*X/.#.i 9 8 t J #.I.-X,XN.h r w.e.e.'.+X+X+X+X{ . 1 + s [.+X+X+X5.o F t X X J J..X.X.X-X,X:X*X%X5X5X5X",
"<X1X1X=X:X3X4X3X2X2XI..X}.&.t > k l l k w * = W %.o.f   P w.e.'.+X+X+X+X{.} F +.{.+X@X+X`.8 D (.).A.Z.L.Y..X.X.X,X1X:X=X=X;X5X<X",
"6X6X4X:X-X3X3X4X4X*X}.L.Z.h ) 7.<.-.-.>.-.U I l p p K p , { 9.e.{.+X+X+X+X+X+X+X+X+X{.9.d   F ^.,XXX=X|..X.XY.3X7X1X:X:X;XI.5X5X",
"5X5X5X5X=X,X3X3X,XL.}..X*.8 *.*.P e e l I ] >.>.;.;.[ L   : P 5.e.+X+X+X+X+X+X+X+X'.@.d o L , %.=X=X.X/..X.X*X7X7X3X:X;X;X=X5X5X",
";X-X:X:X*X:X,X3X.XL./.}.J.D r , g ..O.A = * w j l l j : 9 D = r E 5.].{.+X+X+X{.+.d : * Y ;.K H L.XX.X.X.X}.,X5X7X3X=XY.-X*X:X1X",
"=X=X=X=X=X*X3X-XL.Y.}.XX2XK.%.*.I..XY.-X=XA._ h f i f ..H.A.f q * X . r x z , O 7 r % ] ,.3.Y - K..X.X.X.X=X4X3X7X,X1X,X3X=X*X=X",
"*XXX.X=X*X*X-XI.Y..X.X-X,X=XXX).*XXXY.3X2X1X4X3X%X).-X-X).M., [ U L e . A G W ) M.&.i Y 3.3.:.R S..XXX.XI.3X3X3X7X7X<X1X,X-XI.=X",
"K.I.).I.I.I.K.I.I.I.I.:X).=X).)..XY.*X:X2X2X5X7X2X,X3X-X=XX.w >.,.,.K g G.J.K.I.K.Z.h Y 3.3.3.9.).)..X.X*X-X3X3X3X7X3X1X3X:X-XI.",
"Y.-X/..X.X.XI.;X;X;X;X5X2X<X1X<X:X<X-X:X,X2X3X3X=X,X2X,XI.J L 1.2.[ a O..XY..X.XI.H.i | 3.3.<.S.<X<X;X1X&X:X3X1X3X7X-X,X,X3X*XL.",
"}..X.X.X.XI.-X*X5X5X5X5X5X5X6X6X6X6X5X:X,X3X3X3X7X5X2X,XZ.7 [ 3.3.[ = 7.Y..X.XL.:XJ.h L 1.<.K W <X5X5X5X5X-X3X,X3X2X7X2X4X1XI..X",
".X}..X.XI.-X:X-X&X*X<X5X5X5X6X5X5X5X5X-X,X3X3X3X7X1X2X=XZ.O =.3.2.Y i S.Y.*X.X*X:X*XO.7 k e i N.1X5X5X5X5X;X:X3X3X2X4X1X2X-X}..X",
".X/..X.X).,X,X1X*X;X;X5X1X5X5X1X:X5X5X:X-X:X3X3X3X4X1XL.Z., I 3.:.a Q L..XXXI.3X:X:XP.%.( o.N.=X6X5X5X5X1X;X=X:X2X3X2X2X2X/.}.}.",
"}..XXX/.1X4X3X,X:X;XY.5X6X6X6X6X5X6X5X5X;X,X,X3X2X2X.X}.D.Q : l a g 7.I..XI.;X2X3X:X-X*XJ.;X6X6X6X5X5X5X2X5X=X:X,X3X3X3X=X}.L.|.",
".X.X.X.X7X7X,X3X:X*X=X5X6X6X6X5X5X5X5X2X2X=X3X3X2X,XL.}..XL.X.t W Z..X.X.X.X7X7X3X,X3X*X*X5X6X6X5X5X4X4X5X5X5X=X:X2X4X1XL.}..X/.",
".X.XI.1X4X7X3X.XI.:X=X5X:X1X:X:X:X:X:X:X<X=X,X-X2X*XY.}..XXX3X}.=X|.XX.XI.:X4X7X3X.XL.-X;X<X5X:X1X1X,X<X<X:X-X-X:X3X3X*X}.}..XXX",
"XX.X*X4X4X6X-X,X:X,X=XI.;X=X=X;X-X=X=X=X-X*X*X3X<X/.}.Y.XX,XXX-X.X.XXX.X*X4X4X7X:X,X:X1X=X*X*X=X=X=X=X=X=X=X=X=X*X,X-XL.}.}..X1X",
".XL.,X3X3X4X3X<X3X:X-X*X=X;XY.=X=X=X.X=X=X=X*X:X/.Y.}..X-X<X=XXX.X=X.XI.,X1X3X4X2X,X2X1X-X*X=X*X*X=X*X=X*X=X=X=X*X:X).Y.}.}.-X,X",
"L..X1X3X3X4X7X2X3X3X:X=XI.I.).Y.I.L.Y.I.Y.I.I.K.K.L.L.I.;X*XXXL.Y.I.I.Y.3X3X5X4X7X1X1X,X,X=XI.|..X).*XY.I..X.XY..XK.J.K.K.I.=X).",
"1X=X:X3X3X3X4X=X,X3X:X-XY.|.*X*XXXL.=X.XY..X.XI.;X:X:X:X:X<X5X1X:X:X:X=X:X3X3X3X7X-X1X1X,X-XY..X=X.X*XJ.=X.X.X.X.XI.*X:X:X;X1X5X",
"5X:X-X3X3X3X3X3X2X1X3XI..X.XXX*X.X.X.XY..X.XI.=X%X5X1X5X5X5X5X6X5X5X5X5X-X,X3X4X3X3X2X3X1X)..X.XXX.X.X.XXXI..X*X/.=X&X5X5X5X5X5X"
};
