/* XPM */
static char *_7f7a98f511c45a49ec91eb171df27bffhnNiHk1LkOO8KWD[] = {
/* columns rows colors chars-per-pixel */
"64 64 119 2 ",
"   c #000000",
".  c #0A0404",
"X  c #130706",
"o  c #130807",
"O  c #150A08",
"+  c #1C0D0A",
"@  c #260E0C",
"#  c #26120E",
"$  c #2D1511",
"%  c #231D16",
"&  c #351310",
"*  c #3A1612",
"=  c #371813",
"-  c #3B1C16",
";  c #3F1E18",
":  c #262017",
">  c #262119",
",  c #2F271E",
"<  c #2F281E",
"1  c #3E362B",
"2  c #421A16",
"3  c #411F18",
"4  c #4D1D18",
"5  c #422019",
"6  c #4F231C",
"7  c #52251D",
"8  c #59221C",
"9  c #63231E",
"0  c #542920",
"q  c #582A21",
"w  c #41372A",
"e  c #433A2C",
"r  c #493E31",
"t  c #672E24",
"y  c #6C2A23",
"u  c #722622",
"i  c #752B25",
"p  c #7A2E26",
"a  c #753429",
"s  c #7C362B",
"d  c #73382C",
"f  c #7C3C2F",
"g  c #7F3E30",
"h  c #4C4334",
"j  c #5B4D3C",
"k  c #62543F",
"l  c #5C5141",
"z  c #635543",
"x  c #72624D",
"c  c #736652",
"v  c #776B57",
"b  c #7A6D59",
"n  c #83322A",
"m  c #8F362D",
"M  c #863C2F",
"N  c #93382E",
"B  c #813F31",
"V  c #9F3530",
"C  c #9A3A31",
"Z  c #A23D33",
"A  c #AA3934",
"S  c #BF3F39",
"D  c #864133",
"F  c #944234",
"G  c #9F4738",
"H  c #9E4C3C",
"J  c #AC4136",
"K  c #A6493A",
"L  c #B44439",
"P  c #BC473B",
"I  c #BD483C",
"U  c #C34A3D",
"Y  c #AC5441",
"T  c #B05543",
"R  c #BA5342",
"E  c #BD5A47",
"W  c #837057",
"Q  c #8A765C",
"!  c #8C7C65",
"~  c #CE4E41",
"^  c #C05947",
"/  c #C85947",
"(  c #C25D49",
")  c #D45E4B",
"_  c #DC5F4C",
"`  c #C6604B",
"'  c #DD624E",
"]  c #DD6B54",
"[  c #E16651",
"{  c #E56B54",
"}  c #EB7259",
"|  c #978166",
" . c #90836C",
".. c #9C856A",
"X. c #9F8A6F",
"o. c #A08A6B",
"O. c #B59B7D",
"+. c #BA9F7B",
"@. c #BCA384",
"#. c #BAA78B",
"$. c #C7AC8A",
"%. c #CCAD8C",
"&. c #D0AD86",
"*. c #D5AC8A",
"=. c #CDB58E",
"-. c #D6B38F",
";. c #DCB38C",
":. c #D6B592",
">. c #DEB892",
",. c #D4BF9E",
"<. c #DCBE9A",
"1. c #E5B796",
"2. c #E7BA96",
"3. c #E2BE95",
"4. c #E2BE9A",
"5. c #E3C19B",
"6. c #DFC7A5",
"7. c #E8C9A6",
"8. c #EACEAB",
/* pixels */
"$.x                       c $.5.<.! ,                                                     < ! <.5.$.x                       b =.",
"c   + + + + + + + + + + +   & ~ n       o + + + + + + + + + + + # + + + + + + + + + + + + O   n ~ &   + O + + + + + + + + +   v ",
"  + ' ' ' ' _ { } } } } } +   ~ 4   G ' ' ' ' ' } } } } } } } } } } } } } } } } } } } } } T   4 ~   + ' ' ' ' ' [ } } } } } +   ",
"  + ' ' ' ' ' { } } } } } +   ~ 4   K ' ' ' ' [ } } } } } } } } } } } } } } } } } } } } } T   4 ~   + ' ' ' ' ' { } } } } } +   ",
"  + ' ' ' ' ' { } } } } } +   ~ 4   K ' ' ' ' ' } } } } } } } } } } } } } } } } } } } } } T   4 ~   + ' ' ' ' ' { } } } } } +   ",
"1 $ ' ' ' ' _ { } } } } } +   ~ 4   K ' ' ' ' [ } } } } } } } } } } } } } } } } } } } } } T   4 ~   + ' ' _ ' ' { } } } } } +   ",
"%./ ' ' ' ' ' { } } } } } +   ~ 4   K ' ' ' ' ' } } } } } } } } } } } } } } } } } } } } } T   4 ~   + ' ' ' ' ' { } } } } } +   ",
"1.' ' ' ' ' ' { } } } } } +   ~ 4   K ' ' ' ' [ } } } } } } } } } } } } } } } } } } } } } T   4 ~   + ' ' ' ' ' { } } } } } +   ",
"*.) ' ' ' ' ' { } } } } } +   ~ 4   K ' ' ' ' ' } } } } } } } } } } } } } } } } } } } } } T   4 ~   + ' ' ' ' ' { } } } } } +   ",
"r = ' ' ' ' ' { } } } } } #   ~ 4   K ' ' ' ' [ } } } } } } } } } } } } } } } } } } } } } Y   4 ~   + ' ' ' ' ' [ } } } } } +   ",
"  + ' ' ' ' ' { } } } } } +   ~ 4   K ' ' ' ' ' } } } } } } } } } } } } } } } } } } } } } T   4 ~   + _ ' ' ' ' { } } } } } +   ",
"  + ' ' ' ' ' { } } } } } +   ~ 4   K ' ' ' ' ' } } } } } } } } } } } } } } } } } } } } } T   4 ~   + ' ' ' ' ' { } } } } } +   ",
"  + ' ' ' ' ' { } } } } } +   ~ 4   K ' ' ' ' ' } } } } } } } } } } } } } } } } } } } } } Y   4 ~   + ' ' ' ' ' { } } } } } +   ",
"j   = = = = = = - - - - -   # ~ i   # = = = = = = - - - - - - - - ; - - - - - - - - - - - $   i ~ @   = = = = = = - - - - -   z ",
"O.X                       + N ~ U *                                                         = U ~ C +                       + +.",
";.S A A A A A A L L L L L ~ ~ ~ ~ ~ I L L L L L L L L L L L L L L L L L L L L L L L L L L I ~ ~ ~ ~ U L L L L L L L L L L P U 3.",
"&.9 & & & & & * * * * * * * * * * * * * * * * * * * * * * 8 L ~ ~ L 8 * * * * * * * * * * * * * * * * * * * * * * * * * * * y -.",
"W                                                           + ~ U +                                                           Q ",
"% X F K R R R ^ ` ` ` ` ` ` ` ` ` ` ` ` ` ` ` ` ` ` ` ` ` 5   Z Z   - R R R R R ( ` ` ` ` ` ) / ` ` ` ` ` ` ` ` ` ` ` ( Y H o : ",
"  + ' ' _ ' ' { } } } } } } } } } } } } } } } } } } } } } q   C C   7 ' ' ' ' ' } } } } } } } } } } } } } } } } } } } } } } +   ",
"  + ' ' ' ' ' { } } } } } } } } } } } } } } } } } } } } } q   C C   7 ' ' ' ' ' } } } } } } } } } } } } } } } } } } } } } } +   ",
"  + ' ' ' ' ' [ } } } } } } } } } } } } } } } } } } } } } q   C C   7 ' ' ' ' ' { } } } } } } } } } } } } } } } } } } } } } +   ",
"  + ' ' ' ' ' { } } } } } } } } } } } } } } } } } } } } } q   C C   7 ' ' ' ' ' { } } } } } } } } } } } } } } } } } } } } } +   ",
"  + ' ' ' ' ' { } } } } } } } } } } } } } } } } } } } } } q   C C   7 ' ' ' ' _ } } } } } } } } } } } } } } } } } } } } } } #   ",
"  + ' ' ' ' ' { } } } } } } } } } } } } } } } } } } } } } q   C C   7 ' ' ' ' ' } } } } } } } } } } } } } } } } } } } } } } +   ",
"  + ' ' ' ' ' { } } } } } } } } } } } } } } } } } } } } } q   C C   7 ' ' ' ' ' { } } } } } } } } } } } } } } } } } } } } } +   ",
"  + ' ' ' ' ' { } } } } } } } } } } } } } } } } } } } } } q   C C   7 ' ' ' ' ' { } } } } } } } } } } } } } } } } } } } } } +   ",
"  + ' ' ' ' ' { } } } } } } } } } } } } } } } } } } } } } q   C C   7 ' ' ' ' ' { } } } } } } } } } } } } } } } } } } } } } +   ",
"  + ' ' ' ' ' { } } } } } } } } } } } } } } } } } } } } } q   C C   7 ' ' ' ' ' { } } } } } } } } } } } } } } } } } } } } } @   ",
"w . 7 t s s s f B B B B B B D B B B B B g g g g g g f f f $   J J   + q t s s f M D D k B B B B B D g g B g g g g g g g k m . e ",
"..                                                          * ~ ~ *                                                           o.",
"*.V u u u u u i p p p p p p p p p p p p p p p p p p p p p C ~ ~ ~ ~ C p p p p p p p p p p p p p p p p p p p p p p p p p p p J :.",
";.V u u u u u i p p p p p J ~ ~ ~ U n p p p p p p p p p p p p p p p p p p n U ~ ~ Z p p p n U ~ ~ ~ J p p p p p p p p p p p J >.",
"|                           y ~ L .                                         s _ _ +         . L ~ y                           X.",
"w . a a a a a d f f g f g . O ~ 9   - t s s s f B B B B B B B g B g g f f D ] } } T g g g q   9 ~ X . a a a a a s g f f f f . e ",
"  + ' ' ' ' _ { } } } } } +   ~ 4   K ' ' ' ' ' } } } } } } } } } } } } } } } } } } } } } T   4 ~   + ' ' ' ' ' [ } } } } } +   ",
"  + ' ' ' ' ' { } } } } } +   ~ 4   K ' ' ' ' [ } } } } } } } } } } } } } } } } } } } } } T   4 ~   + ' _ ' ' ' { } } } } } +   ",
"  + ' ' ' ' ' { } } } } } +   ~ 4   K ' ' ' ' ' } } } } } } } } } } } } } } } } } } } } } T   4 ~   + ' ' ' ' ' { } } } } } +   ",
"  + ' ' ' ' ' { } } } } } +   ~ 4   K ' ' ' ' ' } } } } } } } } } } } } } } } } } } } } } Y   4 ~   + ' ' ' ' ' { } } } } } +   ",
"  + ' ' ' ' ' { } } } } } #   ~ 4   K ' ' ' ' [ } } } } } } } } } } } } } } } } } } } } } T   4 ~   + ' ' ' ' ' { } } } } } +   ",
"  + ' ' ' ' ' [ } } } } } +   ~ 4   K ' ' ' ' ' } } } } } } } } } } } } } } } } } } } } } T   4 ~   + ' ' ' ' ' { } } } } } +   ",
"  + ' ' ' ' ' { } } } } } +   ~ 4   K ' ' ' ' [ } } } } } } } } } } } } } } } } } } } } } T   4 ~   + ' ' ' ' ' { } } } } } +   ",
"  + ' ' ' ' ' { } } } } } +   ~ 4   K ' ' ' ' ' } } } } } } } } } } } } } } } } } } } } } T   4 ~   + ' ' ' ' ' [ } } } } } +   ",
"  + ' ' ' ' ' { } } } } } +   ~ 4   K ' ' ' ' [ } } } } } } } } } } } } } } } } } } } } } T   4 ~   + ' ' ' ' ' { } } } } } +   ",
"  + ' ' ' ' ' [ } } } } } @   ~ 4   K ' ' ' ' ' } } } } } } } } } } } } } } } } } } } } } T   4 ~   + ' ' ' ' ' { } } } } } @   ",
"% O R R R R R ^ ` ` ` ` ` O   ~ 8   M R R R R R ` ` ` ` ` ` ` ` ` ` ` ` ` ` ` ` ` ` ` E Y d   7 ~   O R R R R R E ` ` ` ` ` O > ",
"!                           4 ~ C                                                             C ~ 4                            .",
"<.9 & & & & & * * * * * * y I ~ ~ m 2 * * * * * * * * * * * * * * * * * * * * * * * * * * 2 m ~ ~ U y * * * * * * * * * * * y 6.",
"4.S A A A A A A P L L L L L L L L L L L L L L L L L L L L ~ ~ ~ ~ ~ U L L L L L L L L L L L L L L L L L L L L L L L L L L L ~ 7.",
"@.X                                                       . y ~ ~ y .                                                       + @.",
"l   = = = = = = ; ; ; ; ; ; ; ; ; 5 5 5 5 5 3 5 5 5 ; $ + .   I I     @ $ - - - ; 5 5 5 5 ; ; ; ; ; - 3 5 - - - - ; - - - -   z ",
"  + ' ' ' ' ' { } } } } } } } } } } } } } } } } } } } } } q   C C   7 ' ' ' ' ' { } } } } } } } } } } } } } } } } } } } } } +   ",
"  + ' ' ' ' ' [ } } } } } } } } } } } } } } } } } } } } } q   C C   7 ' ' ' ' ' } } } } } } } } } } } } } } } } } } } } } } +   ",
"  + ' ' ' ' ' { } } } } } } } } } } } } } } } } } } } } } q   C C   7 ' ' ' ' ' { } } } } } } } } } } } } } } } } } } } } } +   ",
"  + ' ' ' ' ' { } } } } } } } } } } } } } } } } } } } } } q   C C   7 ' ' ' ' ' { } } } } } } } } } } } } } } } } } } } } } +   ",
"  + ' ' ' ' ' [ } } } } } } } } } } } } } } } } } } } } } q   C C   7 ' ' ' ' ' } } } } } } } } } } } } } } } } } } } } } } +   ",
"  + ' ' ' ' ' { } } } } } } } } } } } } } } } } } } } } } q   C C   7 ' ' ' ' ' { } } } } } } } } } } } } } } } } } } } } } +   ",
"  O ' ' ' ' ' { } } } } } } } } } } } } } } } } } } } } } q   C C   7 ' ' ' ' ' } } } } } } } } } } } } } } } } } } } } } } +   ",
"  + ' ' ' ' ' { } } } } } } } } } } } } } } } } } } } } } q   C C   7 ' ' ' ' ' { } } } } } } } } } } } } } } } } } } } } } +   ",
"  + ' ' ' ' ' { } } } } } } } } } } } } } } } } } } } } } q   C C   7 [ ' ' ' ' { } } } } } } } } } } } } } } } } } } } } } +   ",
"  + ' ' ' ' ' { } } } } } } } } } } } } } } } } } } } } } q   C C   7 ' ' ' ' ' } } } } } } } } } } } } } } } } } } } } } } #   ",
"  + ' ' ' ' ' { } } } } } } } } } } } } } } } } } } } } } 0   C C   6 ' ' ' ' ' } } } } } } } } } } } } } } } } } } } } } } +   ",
"v   + + + & ` [ ] - + + + + + + + + + + + + + # + + + O     . U U .     . + + + + + # + + + # + + + + + # + + + + + + + + +   b ",
",.v       r ;.2.:.h                                       l #.8.8.#.l                                                       b ,."
};
